<svg xmlns="http://www.w3.org/2000/svg" width="229" height="219" viewBox="0 0 229 219" fill="none">
    <path
        d="M30.6097 96.298L0.4375 203.232L55.0137 189.477L115.358 209L169.047 189.477L228.06 209L201.438 98.9603L146.861 75L111.808 86.0927L80.7488 75L30.6097 96.298Z"
        fill="url(#paint0_linear_6962_10160)"
    />
    <path d="M80.7504 75.4453L54.1278 189.035L0.882812 202.79L30.1676 96.2996L80.7504 75.4453Z" fill="#D9D9D9" />
    <path d="M146.862 75L111.809 86.0927L115.358 209L169.047 189.477L146.862 75Z" fill="#D9D9D9" />
    <mask id="path-4-inside-1_6962_10160" fill="white">
        <path
            fill-rule="evenodd"
            clip-rule="evenodd"
            d="M112.289 115.954C116.907 113.784 162.72 91.2347 162.72 50.8054C162.72 22.7463 139.974 0 111.915 0C83.8557 0 61.1094 22.7463 61.1094 50.8054C61.1094 91.2347 106.923 113.784 111.541 115.954C111.798 116.075 112.031 116.075 112.289 115.954ZM112 68C121.389 68 129 60.3888 129 51C129 41.6112 121.389 34 112 34C102.611 34 95 41.6112 95 51C95 60.3888 102.611 68 112 68Z"
        />
    </mask>
    <path
        fill-rule="evenodd"
        clip-rule="evenodd"
        d="M112.289 115.954C116.907 113.784 162.72 91.2347 162.72 50.8054C162.72 22.7463 139.974 0 111.915 0C83.8557 0 61.1094 22.7463 61.1094 50.8054C61.1094 91.2347 106.923 113.784 111.541 115.954C111.798 116.075 112.031 116.075 112.289 115.954ZM112 68C121.389 68 129 60.3888 129 51C129 41.6112 121.389 34 112 34C102.611 34 95 41.6112 95 51C95 60.3888 102.611 68 112 68Z"
        fill="url(#paint1_linear_6962_10160)"
    />
    <path
        d="M112.289 115.954L111.438 114.144H111.438L112.289 115.954ZM111.541 115.954L110.69 117.764H110.69L111.541 115.954ZM160.72 50.8054C160.72 70.2159 149.724 85.4644 137.889 96.2484C126.07 107.018 113.665 113.097 111.438 114.144L113.14 117.764C115.53 116.64 128.341 110.36 140.583 99.2051C152.809 88.0647 164.72 71.8242 164.72 50.8054H160.72ZM111.915 2C138.869 2 160.72 23.8509 160.72 50.8054H164.72C164.72 21.6418 141.078 -2 111.915 -2V2ZM63.1094 50.8054C63.1094 23.8509 84.9603 2 111.915 2V-2C82.7512 -2 59.1094 21.6418 59.1094 50.8054H63.1094ZM112.391 114.144C110.164 113.097 97.7595 107.018 85.9404 96.2484C74.1054 85.4644 63.1094 70.2159 63.1094 50.8054H59.1094C59.1094 71.8242 71.0202 88.0647 83.2464 99.2051C95.4885 110.36 108.299 116.64 110.69 117.764L112.391 114.144ZM111.438 114.144C111.525 114.103 111.692 114.045 111.915 114.045C112.137 114.045 112.305 114.103 112.391 114.144L110.69 117.764C111.487 118.138 112.343 118.138 113.14 117.764L111.438 114.144ZM127 51C127 59.2843 120.284 66 112 66V70C122.493 70 131 61.4934 131 51H127ZM112 36C120.284 36 127 42.7157 127 51H131C131 40.5066 122.493 32 112 32V36ZM97 51C97 42.7157 103.716 36 112 36V32C101.507 32 93 40.5066 93 51H97ZM112 66C103.716 66 97 59.2843 97 51H93C93 61.4934 101.507 70 112 70V66Z"
        fill="url(#paint2_linear_6962_10160)"
        mask="url(#path-4-inside-1_6962_10160)"
    />
    <g filter="url(#filter0_d_6962_10160)">
        <rect x="141" y="162" width="55" height="55" rx="18" fill="url(#paint3_linear_6962_10160)" />
    </g>
    <path d="M154 189.914L183 189.914" stroke="white" stroke-width="6" stroke-linecap="round" />
    <path d="M168.086 204L168.086 175" stroke="white" stroke-width="6" stroke-linecap="round" />
    <defs>
        <filter
            id="filter0_d_6962_10160"
            x="139"
            y="160"
            width="59"
            height="59"
            filterUnits="userSpaceOnUse"
            color-interpolation-filters="sRGB"
        >
            <feFlood flood-opacity="0" result="BackgroundImageFix" />
            <feColorMatrix
                in="SourceAlpha"
                type="matrix"
                values="0 0 0 0 0 0 0 0 0 0 0 0 0 0 0 0 0 0 127 0"
                result="hardAlpha"
            />
            <feOffset />
            <feGaussianBlur stdDeviation="1" />
            <feComposite in2="hardAlpha" operator="out" />
            <feColorMatrix type="matrix" values="0 0 0 0 0 0 0 0 0 0 0 0 0 0 0 0 0 0 0.1 0" />
            <feBlend mode="normal" in2="BackgroundImageFix" result="effect1_dropShadow_6962_10160" />
            <feBlend mode="normal" in="SourceGraphic" in2="effect1_dropShadow_6962_10160" result="shape" />
        </filter>
        <linearGradient
            id="paint0_linear_6962_10160"
            x1="114.027"
            y1="67.9007"
            x2="114.027"
            y2="231.629"
            gradientUnits="userSpaceOnUse"
        >
            <stop stop-color="#FAFAFA" />
            <stop offset="1" stop-color="#DFDFDF" />
        </linearGradient>
        <linearGradient
            id="paint1_linear_6962_10160"
            x1="111.816"
            y1="-27.5"
            x2="111.816"
            y2="86.5"
            gradientUnits="userSpaceOnUse"
        >
            <stop stop-color="#FAFAFA" />
            <stop offset="1" stop-color="#DFDFDF" />
        </linearGradient>
        <linearGradient
            id="paint2_linear_6962_10160"
            x1="111.915"
            y1="-49"
            x2="111.915"
            y2="116.045"
            gradientUnits="userSpaceOnUse"
        >
            <stop stop-color="white" stop-opacity="0" />
            <stop offset="1" stop-color="white" />
        </linearGradient>
        <linearGradient
            id="paint3_linear_6962_10160"
            x1="168.5"
            y1="143.89"
            x2="168.5"
            y2="312.244"
            gradientUnits="userSpaceOnUse"
        >
            <stop stop-color="#C1C9D4" />
            <stop offset="1" stop-color="#062753" />
        </linearGradient>
    </defs>
</svg>
