<svg width="368" height="524" viewBox="0 0 368 524" fill="none" xmlns="http://www.w3.org/2000/svg">
<path d="M144.5 11C147.538 11 150 8.53757 150 5.5C150 2.46243 147.538 0 144.5 0C141.462 0 139 2.46243 139 5.5C139 8.53757 141.462 11 144.5 11Z" fill="url(#paint0_linear_4052_35949)"/>
<path d="M184 335.361C285.62 335.361 368 331.108 368 325.861C368 320.615 285.62 316.361 184 316.361C82.3796 316.361 0 320.615 0 325.861C0 331.108 82.3796 335.361 184 335.361Z" fill="#FAFAFA"/>
<path d="M358 327.861C358 302.188 353.499 276.766 344.755 253.047C336.011 229.328 323.194 207.776 307.037 189.622C290.879 171.468 271.698 157.068 250.587 147.243C229.476 137.418 206.85 132.361 184 132.361C161.15 132.361 138.524 137.418 117.413 147.243C96.3024 157.068 77.1208 171.468 60.9634 189.622C44.806 207.776 31.9893 229.328 23.245 253.047C14.5006 276.766 10 302.188 10 327.861H184H358Z" fill="url(#paint1_linear_4052_35949)"/>
<path d="M146.345 269.411C146.337 269.2 146.327 269.03 146.323 268.858C146.302 267.621 146.28 266.383 146.266 265.143C146.264 264.996 146.282 264.828 146.346 264.69C146.448 264.472 146.627 264.327 146.871 264.288C147.439 264.192 148.007 264.092 148.574 263.989C148.766 263.954 148.924 264.001 149.061 264.118C149.72 264.673 150.381 265.225 151.042 265.774C151.192 265.897 151.255 266.057 151.255 266.261C151.257 266.808 151.268 267.355 151.269 267.904C151.272 268.379 151.056 268.633 150.577 268.714C149.621 268.876 148.663 269.034 147.708 269.195C147.377 269.251 147.046 269.309 146.715 269.363C146.605 269.38 146.492 269.392 146.345 269.411Z" fill="#CE2E51"/>
<path d="M146.345 269.411C146.337 269.2 146.327 269.03 146.323 268.858C146.302 267.621 146.28 266.383 146.266 265.143C146.264 264.996 146.282 264.828 146.346 264.69C146.448 264.472 146.627 264.327 146.871 264.288C147.439 264.192 148.007 264.092 148.574 263.989C148.766 263.954 148.924 264.001 149.061 264.118C149.72 264.673 150.381 265.225 151.042 265.774C151.192 265.897 151.255 266.057 151.255 266.261C151.257 266.808 151.268 267.355 151.269 267.904C151.272 268.379 151.056 268.633 150.577 268.714C149.621 268.876 148.663 269.034 147.708 269.195C147.377 269.251 147.046 269.309 146.715 269.363C146.605 269.38 146.492 269.392 146.345 269.411Z" fill="url(#paint2_linear_4052_35949)"/>
<path d="M259.973 254.807H269.115V265.357H259.973V282.879H247.702V265.357H215.896L215.562 257.355L247.285 204.118H259.973V254.807ZM228.461 254.807H247.702V221.909L246.784 223.652L228.461 254.807Z" fill="url(#paint3_linear_4052_35949)"/>
<path d="M207.62 249.711C207.62 261.035 205.631 269.573 201.651 275.324C197.7 281.075 191.69 283.951 183.62 283.951C175.662 283.951 169.665 281.15 165.631 275.547C161.624 269.945 159.564 261.646 159.453 250.65V237.016C159.453 225.663 161.429 217.155 165.38 211.493C169.359 205.831 175.397 203 183.495 203C191.564 203 197.575 205.771 201.526 211.314C205.477 216.827 207.509 225.082 207.62 236.078V249.711ZM195.349 235.005C195.349 227.615 194.403 222.191 192.511 218.734C190.618 215.277 187.613 213.549 183.495 213.549C179.488 213.549 176.538 215.188 174.646 218.466C172.782 221.714 171.794 226.81 171.683 233.753V251.588C171.683 258.949 172.643 264.432 174.563 268.038C176.483 271.644 179.502 273.446 183.62 273.446C187.544 273.446 190.451 271.778 192.344 268.44C194.236 265.103 195.237 259.888 195.349 252.795V235.005Z" fill="url(#paint4_linear_4052_35949)"/>
<path d="M142.41 254.807H151.551V265.357H142.41V282.879H130.139V265.357H98.3339L98 257.355L129.722 204.118H142.41V254.807ZM110.897 254.807H130.139V221.909L129.221 223.652L110.897 254.807Z" fill="url(#paint5_linear_4052_35949)"/>
<path d="M223.675 118.912C223.675 114.196 222.645 109.526 220.642 105.169C218.64 100.812 215.706 96.853 212.006 93.5183C208.307 90.1836 203.915 87.5383 199.081 85.7336C194.248 83.9289 189.067 83 183.836 83C178.604 83 173.423 83.9289 168.59 85.7336C163.756 87.5383 159.364 90.1836 155.665 93.5183C151.965 96.853 149.031 100.812 147.029 105.169C145.027 109.526 143.996 114.196 143.996 118.912H183.836H223.675Z" fill="url(#paint6_linear_4052_35949)"/>
<path d="M263 124.98C263 125.531 262.684 126.222 261.725 127.042C260.773 127.856 259.31 128.687 257.331 129.506C253.382 131.14 247.607 132.633 240.396 133.895C225.991 136.416 206.052 137.98 184 137.98C161.948 137.98 142.009 136.416 127.604 133.895C120.393 132.633 114.618 131.14 110.669 129.506C108.69 128.687 107.227 127.856 106.275 127.042C105.316 126.222 105 125.531 105 124.98C105 124.43 105.316 123.739 106.275 122.919C107.227 122.105 108.69 121.274 110.669 120.455C114.618 118.821 120.393 117.328 127.604 116.066C142.009 113.545 161.948 111.98 184 111.98C206.052 111.98 225.991 113.545 240.396 116.066C247.607 117.328 253.382 118.821 257.331 120.455C259.31 121.274 260.773 122.105 261.725 122.919C262.684 123.739 263 124.43 263 124.98Z" fill="url(#paint7_linear_4052_35949)" stroke="url(#paint8_linear_4052_35949)" stroke-width="2"/>
<g filter="url(#filter0_i_4052_35949)">
<path d="M184.5 131.361C199.688 131.361 212 129.347 212 126.861C212 124.376 199.688 122.361 184.5 122.361C169.312 122.361 157 124.376 157 126.861C157 129.347 169.312 131.361 184.5 131.361Z" fill="#EAEAEA"/>
</g>
<path d="M69 42C74.5228 42 79 37.5228 79 32C79 26.4772 74.5228 22 69 22C63.4772 22 59 26.4772 59 32C59 37.5228 63.4772 42 69 42Z" fill="url(#paint9_linear_4052_35949)"/>
<path d="M294.5 27C297.538 27 300 24.5376 300 21.5C300 18.4624 297.538 16 294.5 16C291.462 16 289 18.4624 289 21.5C289 24.5376 291.462 27 294.5 27Z" fill="url(#paint10_linear_4052_35949)"/>
<path d="M345.5 42C346.881 42 348 40.8807 348 39.5C348 38.1193 346.881 37 345.5 37C344.119 37 343 38.1193 343 39.5C343 40.8807 344.119 42 345.5 42Z" fill="url(#paint11_linear_4052_35949)"/>
<path d="M31.5 91C34.5376 91 37 88.5376 37 85.5C37 82.4624 34.5376 80 31.5 80C28.4624 80 26 82.4624 26 85.5C26 88.5376 28.4624 91 31.5 91Z" fill="url(#paint12_linear_4052_35949)"/>
<path d="M318 71C319.657 71 321 69.6569 321 68C321 66.3431 319.657 65 318 65C316.343 65 315 66.3431 315 68C315 69.6569 316.343 71 318 71Z" fill="url(#paint13_linear_4052_35949)"/>
<path d="M227 43C228.657 43 230 41.6569 230 40C230 38.3431 228.657 37 227 37C225.343 37 224 38.3431 224 40C224 41.6569 225.343 43 227 43Z" fill="url(#paint14_linear_4052_35949)"/>
<path d="M162 61C163.657 61 165 59.6569 165 58C165 56.3431 163.657 55 162 55C160.343 55 159 56.3431 159 58C159 59.6569 160.343 61 162 61Z" fill="url(#paint15_linear_4052_35949)"/>
<path d="M189.552 218.792C189.501 218.413 189.455 218.109 189.42 217.798C189.174 215.571 188.927 213.342 188.695 211.109C188.667 210.843 188.669 210.537 188.762 210.279C188.909 209.868 189.208 209.577 189.642 209.465C190.651 209.197 191.658 208.921 192.663 208.641C193.003 208.546 193.295 208.604 193.563 208.792C194.844 209.682 196.128 210.567 197.413 211.446C197.704 211.643 197.843 211.921 197.877 212.288C197.974 213.275 198.084 214.26 198.179 215.249C198.264 216.106 197.917 216.6 197.066 216.827C195.369 217.278 193.669 217.724 191.974 218.173C191.386 218.33 190.798 218.491 190.21 218.644C190.016 218.692 189.814 218.732 189.552 218.792Z" fill="url(#paint16_linear_4052_35949)"/>
<path d="M146.345 269.411C146.337 269.2 146.327 269.03 146.323 268.858C146.302 267.621 146.28 266.383 146.266 265.143C146.264 264.996 146.282 264.828 146.346 264.69C146.448 264.472 146.627 264.327 146.871 264.288C147.439 264.192 148.007 264.092 148.574 263.989C148.766 263.954 148.924 264.001 149.061 264.118C149.72 264.673 150.381 265.225 151.042 265.774C151.192 265.897 151.255 266.057 151.255 266.261C151.257 266.808 151.268 267.355 151.269 267.904C151.272 268.379 151.056 268.633 150.577 268.714C149.621 268.876 148.663 269.034 147.708 269.195C147.377 269.251 147.046 269.309 146.715 269.363C146.605 269.38 146.492 269.392 146.345 269.411Z" fill="url(#paint17_linear_4052_35949)"/>
<path d="M235.991 213.214C235.97 213.061 235.951 212.938 235.937 212.812C235.837 211.909 235.737 211.006 235.643 210.102C235.632 209.994 235.633 209.87 235.67 209.765C235.73 209.599 235.851 209.481 236.027 209.435C236.436 209.327 236.844 209.215 237.251 209.101C237.389 209.063 237.507 209.086 237.616 209.163C238.135 209.523 238.655 209.882 239.176 210.238C239.294 210.318 239.35 210.431 239.364 210.579C239.403 210.979 239.448 211.378 239.486 211.779C239.521 212.126 239.38 212.327 239.035 212.418C238.348 212.601 237.659 212.782 236.972 212.964C236.733 213.027 236.495 213.093 236.257 213.154C236.178 213.174 236.097 213.19 235.991 213.214Z" fill="url(#paint18_linear_4052_35949)"/>
<path d="M251.259 259.618C250.99 259.639 250.773 259.66 250.553 259.673C248.973 259.758 247.392 259.845 245.809 259.921C245.62 259.931 245.404 259.917 245.226 259.841C244.942 259.721 244.748 259.499 244.686 259.189C244.537 258.467 244.382 257.746 244.223 257.026C244.17 256.783 244.222 256.579 244.365 256.398C245.043 255.53 245.718 254.659 246.388 253.787C246.538 253.59 246.74 253.503 247 253.493C247.699 253.463 248.398 253.424 249.099 253.396C249.707 253.37 250.042 253.634 250.168 254.243C250.42 255.457 250.668 256.673 250.918 257.886C251.005 258.307 251.096 258.728 251.18 259.148C251.207 259.287 251.227 259.431 251.259 259.618Z" fill="url(#paint19_linear_4052_35949)"/>
<path d="M249.846 224.778C249.825 224.624 249.807 224.501 249.792 224.375C249.693 223.473 249.593 222.57 249.499 221.665C249.487 221.557 249.488 221.433 249.526 221.329C249.585 221.162 249.707 221.044 249.883 220.999C250.291 220.89 250.699 220.779 251.107 220.665C251.244 220.626 251.363 220.65 251.471 220.726C251.99 221.087 252.51 221.445 253.031 221.801C253.149 221.881 253.205 221.994 253.219 222.143C253.258 222.543 253.303 222.942 253.342 223.342C253.376 223.69 253.235 223.89 252.891 223.982C252.203 224.165 251.514 224.345 250.827 224.527C250.589 224.591 250.351 224.656 250.113 224.718C250.034 224.738 249.952 224.754 249.846 224.778Z" fill="url(#paint20_linear_4052_35949)"/>
<path d="M199.19 261.97C199.141 261.822 199.1 261.705 199.063 261.584C198.799 260.715 198.535 259.846 198.276 258.974C198.245 258.87 198.223 258.748 198.241 258.638C198.269 258.464 198.366 258.325 198.531 258.248C198.912 258.066 199.293 257.881 199.672 257.695C199.801 257.632 199.921 257.633 200.042 257.688C200.618 257.947 201.196 258.204 201.773 258.458C201.904 258.515 201.98 258.615 202.021 258.759C202.133 259.145 202.25 259.529 202.362 259.915C202.459 260.25 202.358 260.473 202.036 260.627C201.394 260.933 200.75 261.238 200.108 261.543C199.886 261.649 199.664 261.757 199.441 261.862C199.367 261.895 199.29 261.926 199.19 261.97Z" fill="url(#paint21_linear_4052_35949)"/>
<path d="M129.888 221.093C129.737 221.125 129.615 221.153 129.491 221.177C128.598 221.343 127.705 221.51 126.81 221.67C126.703 221.69 126.579 221.698 126.472 221.668C126.302 221.621 126.175 221.509 126.117 221.337C125.978 220.937 125.837 220.539 125.693 220.141C125.644 220.006 125.659 219.887 125.727 219.773C126.048 219.229 126.367 218.683 126.684 218.137C126.755 218.014 126.863 217.949 127.01 217.924C127.406 217.856 127.801 217.782 128.198 217.714C128.541 217.654 128.751 217.779 128.868 218.116C129.102 218.788 129.333 219.462 129.566 220.133C129.647 220.366 129.729 220.599 129.809 220.832C129.834 220.909 129.856 220.989 129.888 221.093Z" fill="url(#paint22_linear_4052_35949)"/>
<path d="M216.772 173.317C216.736 173.054 216.704 172.842 216.68 172.626C216.509 171.075 216.337 169.523 216.175 167.969C216.156 167.783 216.157 167.57 216.222 167.39C216.324 167.105 216.532 166.902 216.835 166.823C217.537 166.637 218.239 166.445 218.938 166.25C219.175 166.184 219.378 166.224 219.565 166.355C220.456 166.975 221.35 167.591 222.245 168.203C222.448 168.34 222.545 168.534 222.569 168.79C222.636 169.476 222.712 170.162 222.779 170.851C222.838 171.447 222.596 171.792 222.004 171.949C220.822 172.264 219.639 172.574 218.458 172.887C218.049 172.996 217.64 173.108 217.23 173.214C217.095 173.248 216.954 173.276 216.772 173.317Z" fill="url(#paint23_linear_4052_35949)"/>
<path d="M133.684 195.239C133.485 195.203 133.324 195.176 133.162 195.143C132.001 194.901 130.839 194.659 129.677 194.409C129.539 194.38 129.385 194.328 129.27 194.239C129.088 194.098 128.99 193.899 129.005 193.662C129.036 193.111 129.063 192.559 129.086 192.007C129.094 191.82 129.171 191.683 129.31 191.579C129.968 191.08 130.624 190.579 131.278 190.077C131.425 189.963 131.588 189.939 131.778 189.982C132.29 190.095 132.804 190.201 133.318 190.316C133.763 190.414 133.955 190.67 133.929 191.135C133.877 192.063 133.823 192.992 133.771 193.919C133.753 194.241 133.737 194.563 133.718 194.884C133.71 194.99 133.697 195.098 133.684 195.239Z" fill="url(#paint24_linear_4052_35949)"/>
<path d="M77.59 232.596C77.3668 232.555 77.1868 232.525 77.0051 232.488C75.7036 232.216 74.4009 231.946 73.0988 231.666C72.9435 231.633 72.7713 231.575 72.6427 231.475C72.4383 231.317 72.3288 231.094 72.3454 230.829C72.38 230.211 72.41 229.592 72.4365 228.973C72.4455 228.764 72.5318 228.61 72.6874 228.493C73.4251 227.935 74.1607 227.373 74.8929 226.81C75.0574 226.682 75.2402 226.655 75.4536 226.703C76.0279 226.83 76.6038 226.949 77.1792 227.078C77.6781 227.188 77.8931 227.474 77.8643 227.996C77.8067 229.036 77.7455 230.077 77.6869 231.116C77.6671 231.477 77.6496 231.838 77.6275 232.198C77.6191 232.316 77.6047 232.437 77.59 232.596Z" fill="url(#paint25_linear_4052_35949)"/>
<path d="M92.6875 179.903C92.6953 179.738 92.6994 179.605 92.7087 179.471C92.7786 178.504 92.8477 177.537 92.9235 176.57C92.9324 176.454 92.9575 176.325 93.0171 176.222C93.1118 176.059 93.2616 175.958 93.455 175.945C93.9048 175.91 94.3547 175.871 94.804 175.83C94.956 175.817 95.0755 175.864 95.1747 175.965C95.6497 176.444 96.1265 176.92 96.6042 177.395C96.7124 177.501 96.7499 177.63 96.7357 177.789C96.6997 178.216 96.6695 178.644 96.6325 179.072C96.6016 179.443 96.4154 179.626 96.036 179.655C95.2791 179.715 94.5214 179.771 93.7654 179.83C93.5031 179.851 93.2408 179.873 92.9787 179.892C92.8922 179.897 92.8035 179.899 92.6875 179.903Z" fill="url(#paint26_linear_4052_35949)"/>
<path d="M265.658 202.417C265.496 202.387 265.364 202.366 265.232 202.338C264.284 202.141 263.334 201.943 262.386 201.739C262.273 201.715 262.147 201.673 262.053 201.6C261.904 201.485 261.825 201.323 261.837 201.129C261.862 200.679 261.884 200.228 261.903 199.777C261.91 199.625 261.973 199.513 262.086 199.428C262.623 199.021 263.159 198.612 263.693 198.201C263.813 198.108 263.946 198.088 264.102 198.123C264.52 198.216 264.94 198.303 265.359 198.396C265.722 198.476 265.879 198.685 265.858 199.065C265.816 199.823 265.772 200.582 265.729 201.339C265.714 201.602 265.702 201.865 265.686 202.127C265.679 202.213 265.669 202.301 265.658 202.417Z" fill="url(#paint27_linear_4052_35949)"/>
<path d="M71.3723 285.563C71.3635 285.352 71.3536 285.183 71.35 285.01C71.3289 283.773 71.3067 282.535 71.2931 281.296C71.2913 281.148 71.3084 280.98 71.3726 280.843C71.4744 280.625 71.6536 280.479 71.8981 280.44C72.4662 280.344 73.0343 280.244 73.6012 280.141C73.793 280.106 73.9503 280.153 74.0881 280.27C74.7468 280.825 75.4075 281.377 76.0693 281.926C76.219 282.049 76.2814 282.209 76.2815 282.413C76.2842 282.96 76.2945 283.508 76.2962 284.056C76.2991 284.532 76.083 284.786 75.6038 284.867C74.6477 285.028 73.6903 285.187 72.7352 285.347C72.4039 285.403 72.0727 285.461 71.7415 285.515C71.6321 285.532 71.5193 285.544 71.3723 285.563Z" fill="url(#paint28_linear_4052_35949)"/>
<path d="M286.345 262.411C286.337 262.2 286.327 262.03 286.323 261.858C286.302 260.621 286.28 259.383 286.266 258.143C286.264 257.996 286.282 257.828 286.346 257.69C286.448 257.472 286.627 257.327 286.871 257.288C287.439 257.192 288.007 257.092 288.574 256.989C288.766 256.954 288.924 257.001 289.061 257.118C289.72 257.673 290.381 258.225 291.042 258.774C291.192 258.897 291.255 259.057 291.255 259.261C291.257 259.808 291.268 260.355 291.269 260.904C291.272 261.379 291.056 261.633 290.577 261.714C289.621 261.876 288.663 262.034 287.708 262.195C287.377 262.251 287.046 262.309 286.715 262.363C286.605 262.38 286.492 262.392 286.345 262.411Z" fill="url(#paint29_linear_4052_35949)"/>
<path d="M186.667 161.198C186.189 161.11 185.805 161.046 185.416 160.967C182.633 160.386 179.848 159.808 177.064 159.209C176.732 159.138 176.363 159.015 176.088 158.801C175.651 158.462 175.417 157.987 175.453 157.419C175.527 156.097 175.591 154.774 175.647 153.451C175.667 153.004 175.851 152.675 176.184 152.425C177.761 151.231 179.334 150.03 180.9 148.826C181.251 148.553 181.642 148.494 182.099 148.598C183.327 148.869 184.558 149.124 185.788 149.399C186.855 149.633 187.315 150.247 187.253 151.361C187.13 153.586 186.999 155.812 186.874 158.034C186.832 158.805 186.794 159.576 186.747 160.346C186.729 160.6 186.698 160.858 186.667 161.198Z" fill="url(#paint30_linear_4052_35949)"/>
<defs>
<filter id="filter0_i_4052_35949" x="157" y="122.361" width="55" height="9" filterUnits="userSpaceOnUse" color-interpolation-filters="sRGB">
<feFlood flood-opacity="0" result="BackgroundImageFix"/>
<feBlend mode="normal" in="SourceGraphic" in2="BackgroundImageFix" result="shape"/>
<feColorMatrix in="SourceAlpha" type="matrix" values="0 0 0 0 0 0 0 0 0 0 0 0 0 0 0 0 0 0 127 0" result="hardAlpha"/>
<feOffset/>
<feGaussianBlur stdDeviation="5.25"/>
<feComposite in2="hardAlpha" operator="arithmetic" k2="-1" k3="1"/>
<feColorMatrix type="matrix" values="0 0 0 0 0.46792 0 0 0 0 0.46792 0 0 0 0 0.46792 0 0 0 0.25 0"/>
<feBlend mode="normal" in2="shape" result="effect1_innerShadow_4052_35949"/>
</filter>
<linearGradient id="paint0_linear_4052_35949" x1="143.881" y1="-2.20402" x2="147.299" y2="11.4282" gradientUnits="userSpaceOnUse">
<stop stop-color="#FAFAFA"/>
<stop offset="1" stop-color="#DFDFDF"/>
</linearGradient>
<linearGradient id="paint1_linear_4052_35949" x1="161.5" y1="1196" x2="891.539" y2="572.772" gradientUnits="userSpaceOnUse">
<stop offset="0.53678" stop-color="#FAFAFA" stop-opacity="0"/>
<stop offset="0.660032" stop-color="#FAFAFA" stop-opacity="0"/>
<stop offset="1" stop-color="#DADADA"/>
</linearGradient>
<linearGradient id="paint2_linear_4052_35949" x1="150.544" y1="263.842" x2="147.232" y2="270.498" gradientUnits="userSpaceOnUse">
<stop stop-color="#FAFAFA"/>
<stop offset="1" stop-color="#DFDFDF"/>
</linearGradient>
<linearGradient id="paint3_linear_4052_35949" x1="242.339" y1="207.909" x2="242.339" y2="314.709" gradientUnits="userSpaceOnUse">
<stop stop-color="#ED7A93"/>
<stop offset="1" stop-color="#CE2E51"/>
</linearGradient>
<linearGradient id="paint4_linear_4052_35949" x1="183.537" y1="206.897" x2="183.537" y2="316.667" gradientUnits="userSpaceOnUse">
<stop stop-color="#ED7A93"/>
<stop offset="1" stop-color="#CE2E51"/>
</linearGradient>
<linearGradient id="paint5_linear_4052_35949" x1="124.776" y1="207.909" x2="124.776" y2="314.709" gradientUnits="userSpaceOnUse">
<stop stop-color="#ED7A93"/>
<stop offset="1" stop-color="#CE2E51"/>
</linearGradient>
<linearGradient id="paint6_linear_4052_35949" x1="179.35" y1="68.6091" x2="199.694" y2="158.617" gradientUnits="userSpaceOnUse">
<stop offset="0.112427" stop-color="#FAFAFA"/>
<stop offset="0.640979" stop-color="#DEDFEA"/>
</linearGradient>
<linearGradient id="paint7_linear_4052_35949" x1="78.0618" y1="124.714" x2="199.097" y2="243.452" gradientUnits="userSpaceOnUse">
<stop stop-color="#FAFAFA"/>
<stop offset="1" stop-color="#DFDFDF"/>
</linearGradient>
<linearGradient id="paint8_linear_4052_35949" x1="184" y1="110.98" x2="184" y2="135.361" gradientUnits="userSpaceOnUse">
<stop stop-color="white"/>
<stop offset="1" stop-color="white" stop-opacity="0"/>
</linearGradient>
<linearGradient id="paint9_linear_4052_35949" x1="67.8742" y1="17.9927" x2="74.0889" y2="42.7785" gradientUnits="userSpaceOnUse">
<stop stop-color="#FAFAFA"/>
<stop offset="1" stop-color="#DFDFDF"/>
</linearGradient>
<linearGradient id="paint10_linear_4052_35949" x1="293.881" y1="13.796" x2="297.299" y2="27.4282" gradientUnits="userSpaceOnUse">
<stop stop-color="#FAFAFA"/>
<stop offset="1" stop-color="#DFDFDF"/>
</linearGradient>
<linearGradient id="paint11_linear_4052_35949" x1="345.219" y1="35.9982" x2="346.772" y2="42.1946" gradientUnits="userSpaceOnUse">
<stop stop-color="#FAFAFA"/>
<stop offset="1" stop-color="#DFDFDF"/>
</linearGradient>
<linearGradient id="paint12_linear_4052_35949" x1="30.8808" y1="77.796" x2="34.2989" y2="91.4282" gradientUnits="userSpaceOnUse">
<stop stop-color="#FAFAFA"/>
<stop offset="1" stop-color="#DFDFDF"/>
</linearGradient>
<linearGradient id="paint13_linear_4052_35949" x1="317.662" y1="63.7978" x2="319.527" y2="71.2335" gradientUnits="userSpaceOnUse">
<stop stop-color="#FAFAFA"/>
<stop offset="1" stop-color="#DFDFDF"/>
</linearGradient>
<linearGradient id="paint14_linear_4052_35949" x1="226.662" y1="35.7978" x2="228.527" y2="43.2335" gradientUnits="userSpaceOnUse">
<stop stop-color="#FAFAFA"/>
<stop offset="1" stop-color="#DFDFDF"/>
</linearGradient>
<linearGradient id="paint15_linear_4052_35949" x1="161.662" y1="53.7978" x2="163.527" y2="61.2335" gradientUnits="userSpaceOnUse">
<stop stop-color="#FAFAFA"/>
<stop offset="1" stop-color="#DFDFDF"/>
</linearGradient>
<linearGradient id="paint16_linear_4052_35949" x1="196.19" y1="208.045" x2="191.332" y2="220.603" gradientUnits="userSpaceOnUse">
<stop stop-color="#FAFAFA"/>
<stop offset="1" stop-color="#DFDFDF"/>
</linearGradient>
<linearGradient id="paint17_linear_4052_35949" x1="150.544" y1="263.842" x2="147.232" y2="270.498" gradientUnits="userSpaceOnUse">
<stop stop-color="#FAFAFA"/>
<stop offset="1" stop-color="#DFDFDF"/>
</linearGradient>
<linearGradient id="paint18_linear_4052_35949" x1="238.68" y1="208.86" x2="236.712" y2="213.948" gradientUnits="userSpaceOnUse">
<stop stop-color="#FAFAFA"/>
<stop offset="1" stop-color="#DFDFDF"/>
</linearGradient>
<linearGradient id="paint19_linear_4052_35949" x1="243.942" y1="254.516" x2="252.606" y2="258.434" gradientUnits="userSpaceOnUse">
<stop stop-color="#FAFAFA"/>
<stop offset="1" stop-color="#DFDFDF"/>
</linearGradient>
<linearGradient id="paint20_linear_4052_35949" x1="252.536" y1="220.424" x2="250.567" y2="225.512" gradientUnits="userSpaceOnUse">
<stop stop-color="#FAFAFA"/>
<stop offset="1" stop-color="#DFDFDF"/>
</linearGradient>
<linearGradient id="paint21_linear_4052_35949" x1="201.033" y1="257.195" x2="200.034" y2="262.558" gradientUnits="userSpaceOnUse">
<stop stop-color="#FAFAFA"/>
<stop offset="1" stop-color="#DFDFDF"/>
</linearGradient>
<linearGradient id="paint22_linear_4052_35949" x1="125.346" y1="218.734" x2="130.567" y2="220.319" gradientUnits="userSpaceOnUse">
<stop stop-color="#FAFAFA"/>
<stop offset="1" stop-color="#DFDFDF"/>
</linearGradient>
<linearGradient id="paint23_linear_4052_35949" x1="221.394" y1="165.835" x2="218.011" y2="174.579" gradientUnits="userSpaceOnUse">
<stop stop-color="#FAFAFA"/>
<stop offset="1" stop-color="#DFDFDF"/>
</linearGradient>
<linearGradient id="paint24_linear_4052_35949" x1="129.366" y1="190.134" x2="134.888" y2="194.641" gradientUnits="userSpaceOnUse">
<stop stop-color="#FAFAFA"/>
<stop offset="1" stop-color="#DFDFDF"/>
</linearGradient>
<linearGradient id="paint25_linear_4052_35949" x1="72.7497" y1="226.874" x2="78.9392" y2="231.925" gradientUnits="userSpaceOnUse">
<stop stop-color="#FAFAFA"/>
<stop offset="1" stop-color="#DFDFDF"/>
</linearGradient>
<linearGradient id="paint26_linear_4052_35949" x1="96.3502" y1="175.853" x2="93.3027" y2="180.813" gradientUnits="userSpaceOnUse">
<stop stop-color="#FAFAFA"/>
<stop offset="1" stop-color="#DFDFDF"/>
</linearGradient>
<linearGradient id="paint27_linear_4052_35949" x1="262.131" y1="198.248" x2="266.641" y2="201.928" gradientUnits="userSpaceOnUse">
<stop stop-color="#FAFAFA"/>
<stop offset="1" stop-color="#DFDFDF"/>
</linearGradient>
<linearGradient id="paint28_linear_4052_35949" x1="75.5706" y1="279.994" x2="72.2584" y2="286.65" gradientUnits="userSpaceOnUse">
<stop stop-color="#FAFAFA"/>
<stop offset="1" stop-color="#DFDFDF"/>
</linearGradient>
<linearGradient id="paint29_linear_4052_35949" x1="290.544" y1="256.842" x2="287.232" y2="263.498" gradientUnits="userSpaceOnUse">
<stop stop-color="#FAFAFA"/>
<stop offset="1" stop-color="#DFDFDF"/>
</linearGradient>
<linearGradient id="paint30_linear_4052_35949" x1="176.317" y1="148.963" x2="189.552" y2="159.763" gradientUnits="userSpaceOnUse">
<stop stop-color="#FAFAFA"/>
<stop offset="1" stop-color="#DFDFDF"/>
</linearGradient>
</defs>
</svg>
