<svg width="16" height="16" viewBox="0 0 16 16" fill="none" xmlns="http://www.w3.org/2000/svg">
<path d="M4.19526 6.19529C4.45561 5.93494 4.87772 5.93494 5.13807 6.19529L7.34003 8.39726C7.54582 8.60304 7.67218 8.72867 7.77414 8.81523C7.82164 8.85555 7.85271 8.87761 7.87265 8.88995C7.88213 8.89581 7.88837 8.89902 7.89183 8.90066C7.89516 8.90224 7.89699 8.90284 7.89699 8.90284C7.96394 8.92459 8.03606 8.92459 8.10301 8.90284C8.10301 8.90284 8.10484 8.90224 8.10817 8.90066C8.11163 8.89902 8.11787 8.89581 8.12735 8.88995C8.14729 8.87761 8.17836 8.85555 8.22586 8.81523C8.32782 8.72867 8.45418 8.60304 8.65997 8.39726L10.8619 6.19529C11.1223 5.93494 11.5444 5.93494 11.8047 6.19529C12.0651 6.45564 12.0651 6.87775 11.8047 7.1381L9.58577 9.35707C9.40236 9.5405 9.23731 9.70557 9.08876 9.83168C8.92968 9.96673 8.74623 10.0958 8.51503 10.1709C8.18029 10.2797 7.81971 10.2797 7.48497 10.1709C7.25377 10.0958 7.07032 9.96673 6.91124 9.83168C6.76269 9.70557 6.59764 9.54051 6.41424 9.35708C6.40858 9.35142 6.40291 9.34575 6.39723 9.34007L4.19526 7.1381C3.93491 6.87775 3.93491 6.45564 4.19526 6.19529Z" fill="#4A4F59"/>
</svg>
