<svg width="20" height="20" viewBox="0 0 20 20" fill="none" xmlns="http://www.w3.org/2000/svg">
<g clip-path="url(#clip0_480_3221)">
<path fill-rule="evenodd" clip-rule="evenodd" d="M9.13053 1.66667H10.8701C12.006 1.66667 12.9094 1.66666 13.6382 1.72621C14.3845 1.78719 15.0209 1.91474 15.6036 2.21164C16.5444 2.69101 17.3093 3.45591 17.7887 4.39672C18.0856 4.97943 18.2131 5.61582 18.2741 6.36215C18.3337 7.09096 18.3337 7.99428 18.3337 9.13011V10.8699C18.3337 12.0058 18.3337 12.9092 18.2741 13.638C18.2131 14.3843 18.0856 15.0207 17.7887 15.6034C17.3093 16.5442 16.5444 17.3091 15.6036 17.7885C15.0209 18.0854 14.3845 18.2129 13.6382 18.2739C12.9094 18.3335 12.006 18.3334 10.8702 18.3334H9.13051C7.99468 18.3334 7.09128 18.3335 6.36247 18.2739C5.61614 18.2129 4.97975 18.0854 4.39704 17.7885C3.45623 17.3091 2.69133 16.5442 2.21196 15.6034C1.91506 15.0207 1.78751 14.3843 1.72653 13.638C1.66698 12.9091 1.66699 12.0058 1.66699 10.8699V9.13021C1.66699 7.99434 1.66698 7.09098 1.72653 6.36215C1.78751 5.61582 1.91506 4.97943 2.21196 4.39672C2.69133 3.45591 3.45623 2.69101 4.39704 2.21164C4.97975 1.91474 5.61614 1.78719 6.36247 1.72621C7.0913 1.66666 7.99466 1.66667 9.13053 1.66667ZM6.4944 6.49408C6.16896 6.81952 6.16896 7.34715 6.4944 7.67259L8.82181 10L6.4944 12.3274C6.16896 12.6529 6.16896 13.1805 6.4944 13.5059C6.81984 13.8314 7.34748 13.8314 7.67291 13.5059L10.0003 11.1785L12.3277 13.5059C12.6532 13.8314 13.1808 13.8314 13.5062 13.5059C13.8317 13.1805 13.8317 12.6529 13.5062 12.3274L11.1788 10L13.5062 7.67259C13.8317 7.34715 13.8317 6.81952 13.5062 6.49408C13.1808 6.16864 12.6532 6.16864 12.3277 6.49408L10.0003 8.82149L7.67291 6.49408C7.34748 6.16864 6.81984 6.16864 6.4944 6.49408Z" fill="#9A9A9A"/>
</g>
<defs>
<clipPath id="clip0_480_3221">
<rect width="20" height="20" fill="white"/>
</clipPath>
</defs>
</svg>
