<svg width="24" height="24" viewBox="0 0 24 24" fill="none" xmlns="http://www.w3.org/2000/svg">
<path d="M2 21.75H22C22.1339 21.75 22.25 21.8661 22.25 22C22.25 22.1339 22.1339 22.25 22 22.25H2C1.86614 22.25 1.75 22.1339 1.75 22C1.75 21.8661 1.86614 21.75 2 21.75Z" fill="#4CAF91" stroke="#4CAF91"/>
<path opacity="0.4" d="M7 2.5H17C18.3975 2.5 19.2409 2.91322 19.7461 3.49805C20.2631 4.09671 20.5 4.96024 20.5 6V21.5H3.5V6C3.5 4.96024 3.73693 4.09671 4.25391 3.49805C4.75907 2.91322 5.60255 2.5 7 2.5Z" fill="#4CAF91" stroke="#4CAF91"/>
<path d="M9.93066 15.5H14.0605C14.3061 15.5002 14.4947 15.6962 14.4902 15.9307V21.5H9.49023V15.9404L9.49902 15.8525C9.54085 15.653 9.72284 15.5 9.93066 15.5Z" fill="#4CAF91" stroke="#4CAF91"/>
<path d="M14.5 7.75H12.75V6C12.75 5.59 12.41 5.25 12 5.25C11.59 5.25 11.25 5.59 11.25 6V7.75H9.5C9.09 7.75 8.75 8.09 8.75 8.5C8.75 8.91 9.09 9.25 9.5 9.25H11.25V11C11.25 11.41 11.59 11.75 12 11.75C12.41 11.75 12.75 11.41 12.75 11V9.25H14.5C14.91 9.25 15.25 8.91 15.25 8.5C15.25 8.09 14.91 7.75 14.5 7.75Z" fill="#4CAF91"/>
</svg>
