<svg xmlns="http://www.w3.org/2000/svg" width="380" height="190" viewBox="0 0 380 190" fill="none">
    <g opacity="0.14" clip-path="url(#clip0_1713_9214)">
        <path
            d="M48.7164 104.169C48.3961 103.849 48.1292 103.635 47.8623 103.368C46.0475 101.5 44.2326 99.6851 42.4178 97.8169C42.2042 97.6034 41.9907 97.3365 41.884 97.0162C41.7238 96.5358 41.884 96.1088 42.2042 95.7351C43.0583 94.8811 43.859 93.9736 44.713 93.1196C44.9799 92.7993 45.3535 92.6926 45.7272 92.6926C47.6488 92.6926 49.5704 92.6926 51.492 92.6926C51.9191 92.6926 52.2393 92.8527 52.5596 93.173C53.3603 93.9737 54.161 94.8277 54.9616 95.6284C55.6555 96.3223 55.6555 97.0162 54.9616 97.7101C53.5738 99.1513 52.1326 100.593 50.7447 102.087C50.2643 102.568 49.7839 103.101 49.3035 103.582C49.1434 103.742 48.9833 103.902 48.7164 104.116V104.169Z"
            fill="white"
        />
        <path
            d="M172.981 63.1745C173.355 63.4414 173.675 63.6015 173.942 63.815C176.13 65.1495 178.372 66.5373 180.561 67.8718C180.828 68.0319 181.148 68.192 181.468 68.192C181.949 68.192 182.376 68.0319 182.642 67.6049C183.283 66.5907 183.977 65.5765 184.617 64.6157C184.831 64.2954 184.884 63.9218 184.778 63.5481C184.351 61.6799 183.924 59.8117 183.496 57.89C183.39 57.463 183.176 57.1961 182.803 56.9826C181.842 56.3955 180.828 55.8083 179.867 55.2211C179.013 54.6873 178.372 54.8475 177.838 55.7015C176.717 57.4096 175.65 59.1177 174.529 60.8258C174.155 61.413 173.782 62.0002 173.355 62.5873C173.248 62.8008 173.088 63.0143 172.928 63.2812L172.981 63.1745Z"
            fill="white"
        />
        <path
            d="M231.323 1.41581C231.43 0.935402 231.377 0.348245 231.11 -0.132159L223.156 -13.5301C222.569 -14.4909 221.342 -14.8112 220.381 -14.224C219.42 -13.6368 219.1 -12.4092 219.687 -11.4483L227.64 1.94959C228.227 2.9104 229.455 3.23066 230.416 2.6435C230.896 2.37661 231.217 1.89621 231.323 1.41581Z"
            fill="white"
        />
        <path
            d="M127.556 6.11312C128.036 6.21987 128.624 6.1665 129.104 5.89961L142.502 -2.00036C143.463 -2.58752 143.783 -3.81523 143.196 -4.77604C142.609 -5.73685 141.381 -6.05711 140.42 -5.46995L127.022 2.43002C126.061 3.01718 125.741 4.24489 126.328 5.2057C126.595 5.6861 127.076 6.00636 127.556 6.11312Z"
            fill="white"
        />
        <path
            d="M114.425 40.4887C114.158 40.8623 113.998 41.1292 113.784 41.4495C112.396 43.638 111.009 45.8265 109.674 48.015C109.514 48.2819 109.354 48.6022 109.354 48.8691C109.354 49.3495 109.514 49.7765 109.941 50.0434C110.955 50.6839 111.916 51.3778 112.93 52.0717C113.251 52.2853 113.624 52.3386 113.998 52.2853C115.866 51.8582 117.788 51.4846 119.656 51.0576C120.083 50.9508 120.35 50.7373 120.617 50.3637C121.204 49.4028 121.844 48.442 122.432 47.4279C122.965 46.5738 122.805 45.9333 121.951 45.3995C120.243 44.2785 118.588 43.1576 116.88 42.0366C116.293 41.663 115.706 41.236 115.119 40.8623C114.905 40.7556 114.692 40.5954 114.425 40.4353V40.4887Z"
            fill="white"
        />
        <path
            d="M276.001 19.7779C275.681 20.0982 275.414 20.3117 275.147 20.5786C273.332 22.4468 271.517 24.2617 269.702 26.1299C269.489 26.3434 269.275 26.6103 269.169 26.9306C269.008 27.411 269.169 27.838 269.489 28.2117C270.343 29.0657 271.144 29.9731 271.998 30.8272C272.265 31.1475 272.638 31.2542 273.012 31.2542C274.933 31.2542 276.855 31.2542 278.777 31.2542C279.204 31.2542 279.524 31.0941 279.844 30.7738C280.645 29.9731 281.446 29.1191 282.246 28.3184C282.94 27.6245 282.94 26.9306 282.246 26.2367C280.858 24.7954 279.417 23.3542 278.029 21.8596C277.549 21.3792 277.069 20.8455 276.588 20.3651C276.428 20.2049 276.268 20.0448 276.001 19.8313V19.7779Z"
            fill="white"
        />
        <path
            d="M292.495 98.8844C290.733 98.8844 289.078 98.0838 288.011 96.6426C287.637 96.1622 287.744 95.5216 288.224 95.148C288.705 94.7743 289.345 94.8811 289.719 95.3615C290.36 96.2155 291.374 96.7493 292.495 96.7493C294.416 96.7493 295.964 95.2013 295.964 93.2797C295.964 91.3581 294.416 89.8101 292.495 89.8101C290.573 89.8101 290.253 90.3973 289.612 91.3048C289.292 91.7852 288.598 91.8919 288.118 91.5716C287.637 91.2514 287.53 90.5574 287.851 90.077C288.918 88.5291 290.626 87.6216 292.495 87.6216C295.591 87.6216 298.099 90.1304 298.099 93.2264C298.099 96.3223 295.591 98.8311 292.495 98.8311V98.8844Z"
            fill="white"
        />
        <path
            d="M207.677 35.7914C206.823 35.7914 206.022 35.5779 205.221 35.2042C202.446 33.8698 201.271 30.4536 202.606 27.6779C203.353 26.0766 204.794 24.9556 206.556 24.6354C207.143 24.5286 207.677 24.9023 207.837 25.4894C207.944 26.0766 207.57 26.6104 206.983 26.7705C205.915 26.984 205.008 27.6779 204.528 28.6921C204.101 29.5462 204.047 30.4536 204.367 31.361C204.688 32.2685 205.328 32.9624 206.129 33.336C206.983 33.763 207.89 33.8164 208.798 33.4962C209.705 33.1759 210.399 32.5353 210.773 31.7347C211.253 30.7205 211.253 29.4928 210.666 28.4786C210.399 27.9448 210.559 27.3043 211.093 27.0374C211.627 26.7705 212.267 26.9306 212.534 27.4644C213.442 29.0658 213.495 31.0408 212.694 32.6955C212.054 34.0299 210.88 35.0441 209.492 35.5779C208.905 35.7914 208.264 35.8982 207.624 35.8982L207.677 35.7914Z"
            fill="white"
        />
        <path
            d="M91.2055 22.2867C89.3907 22.2867 87.5758 21.3792 86.5082 19.7245C85.5474 18.2299 85.3339 16.4151 85.9211 14.7603C86.1346 14.2266 86.7218 13.9063 87.3089 14.1198C87.8427 14.3333 88.163 14.9205 87.9495 15.5076C87.5758 16.5218 87.736 17.6428 88.3231 18.6036C89.3907 20.2049 91.5258 20.6853 93.1272 19.6178C93.9278 19.084 94.4616 18.3367 94.6217 17.4292C94.7819 16.5218 94.6217 15.561 94.1413 14.8137C93.5008 13.8529 92.4332 13.2657 91.3123 13.2124C90.7251 13.2124 90.2447 12.732 90.2981 12.0914C90.2981 11.5043 90.7785 11.0772 91.3657 11.0772C93.2339 11.0772 94.942 12.0914 95.9562 13.6394C96.7569 14.9205 97.0771 16.4151 96.7569 17.8563C96.4366 19.3509 95.5825 20.5786 94.3015 21.4326C93.3407 22.0732 92.2731 22.34 91.2589 22.34L91.2055 22.2867Z"
            fill="white"
        />
        <path
            d="M322.653 13.1591C322.173 13.0523 321.586 13.1057 321.105 13.3726L307.708 21.2726C306.747 21.8597 306.426 23.0874 307.014 24.0482C307.601 25.009 308.828 25.3293 309.789 24.7421L323.187 16.8422C324.148 16.255 324.468 15.0273 323.881 14.0665C323.614 13.5861 323.134 13.2658 322.653 13.1591Z"
            fill="white"
        />
        <path
            d="M377.046 48.1217C377.206 47.6413 377.206 47.1075 376.939 46.5738L370.16 32.5353C369.68 31.5211 368.452 31.0941 367.491 31.5745C366.477 32.0549 366.05 33.2826 366.531 34.2434L373.31 48.2818C373.79 49.296 375.018 49.7231 375.979 49.2427C376.459 48.9758 376.833 48.6021 376.993 48.1217H377.046Z"
            fill="white"
        />
        <path
            d="M149.548 174.094C149.121 173.988 148.747 173.934 148.427 173.881C145.918 173.347 143.356 172.76 140.847 172.226C140.527 172.173 140.207 172.066 139.993 171.853C139.62 171.532 139.46 171.105 139.566 170.625C139.78 169.451 139.993 168.276 140.207 167.048C140.26 166.621 140.474 166.355 140.847 166.141C142.449 165.073 144.05 164.059 145.705 162.992C146.078 162.778 146.452 162.725 146.826 162.778C147.947 163.045 149.068 163.259 150.189 163.526C151.149 163.739 151.523 164.326 151.31 165.287C150.936 167.262 150.562 169.29 150.135 171.265C149.975 171.959 149.868 172.653 149.762 173.347C149.762 173.561 149.655 173.828 149.601 174.094H149.548Z"
            fill="white"
        />
        <path
            d="M9.37676 138.865C8.89635 138.972 8.3092 138.918 7.82879 138.651L-5.56914 130.751C-6.52995 130.164 -6.85022 128.936 -6.26306 127.976C-5.6759 127.015 -4.44819 126.695 -3.48738 127.282L9.91054 135.182C10.8713 135.769 11.1916 136.997 10.6045 137.957C10.3376 138.438 9.85716 138.758 9.37676 138.865Z"
            fill="white"
        />
        <path
            d="M261.162 185.784C261.535 186.051 261.856 186.211 262.123 186.425C264.311 187.759 266.553 189.147 268.741 190.481C269.008 190.642 269.329 190.802 269.649 190.802C270.129 190.802 270.556 190.642 270.823 190.215C271.464 189.2 272.158 188.186 272.798 187.225C273.012 186.905 273.065 186.531 272.958 186.158C272.531 184.29 272.104 182.421 271.677 180.5C271.57 180.073 271.357 179.806 270.983 179.592C270.023 179.005 269.008 178.418 268.048 177.831C267.193 177.297 266.553 177.457 266.019 178.311C264.898 180.019 263.831 181.727 262.71 183.436C262.336 184.023 261.962 184.61 261.535 185.197C261.429 185.411 261.269 185.624 261.108 185.891L261.162 185.784Z"
            fill="white"
        />
        <path
            d="M327.831 70.6474C328.205 70.9143 328.525 71.0744 328.792 71.288C330.981 72.6224 333.223 74.0102 335.411 75.3447C335.678 75.5048 335.998 75.665 336.318 75.665C336.799 75.665 337.226 75.5048 337.493 75.0778C338.133 74.0636 338.827 73.0494 339.468 72.0886C339.681 71.7684 339.735 71.3947 339.628 71.0211C339.201 69.1528 338.774 67.2846 338.347 65.363C338.24 64.9359 338.027 64.6691 337.653 64.4555C336.692 63.8684 335.678 63.2812 334.717 62.6941C333.863 62.1603 333.223 62.3204 332.689 63.1745C331.568 64.8826 330.5 66.5907 329.379 68.2988C329.006 68.8859 328.632 69.4731 328.205 70.0603C328.098 70.2738 327.938 70.4873 327.778 70.7542L327.831 70.6474Z"
            fill="white"
        />
        <path
            d="M280.912 144.203C281.446 144.203 281.926 143.989 282.353 143.615L293.349 132.619C294.15 131.819 294.15 130.538 293.349 129.79C292.548 128.99 291.267 128.99 290.52 129.79L279.524 140.786C278.723 141.587 278.723 142.868 279.524 143.615C279.898 143.989 280.431 144.203 280.965 144.203H280.912Z"
            fill="white"
        />
        <path
            d="M198.709 164.113C195.613 164.113 193.104 161.604 193.104 158.508C193.104 155.412 195.613 152.903 198.709 152.903C201.805 152.903 204.314 155.412 204.314 158.508C204.314 161.604 204.314 158.935 204.314 159.149C204.26 159.736 203.727 160.163 203.139 160.109C202.552 160.056 202.125 159.522 202.179 158.935C202.179 158.828 202.179 158.668 202.179 158.561C202.179 156.64 200.631 155.092 198.709 155.092C196.787 155.092 195.239 156.64 195.239 158.561C195.239 160.483 196.787 162.031 198.709 162.031C200.631 162.031 198.869 162.031 198.923 162.031C199.51 162.031 200.044 162.458 200.044 163.045C200.044 163.632 199.616 164.166 199.029 164.166C198.923 164.166 198.762 164.166 198.656 164.166L198.709 164.113Z"
            fill="white"
        />
        <path
            d="M2.17069 90.6642C-0.925244 90.6642 -3.43402 88.1554 -3.43402 85.0595C-3.43402 81.9635 -0.925244 79.4548 2.17069 79.4548C5.26663 79.4548 7.77541 81.9635 7.77541 85.0595C7.77541 88.1554 7.77541 85.4865 7.77541 85.7C7.72203 86.2872 7.18826 86.7142 6.6011 86.6608C6.01394 86.6075 5.5869 86.0737 5.64028 85.4865C5.64028 85.3797 5.64028 85.2196 5.64028 85.1129C5.64028 83.1912 4.09231 81.6433 2.17069 81.6433C0.249077 81.6433 -1.29889 83.1912 -1.29889 85.1129C-1.29889 87.0345 0.249077 88.5824 2.17069 88.5824C4.09231 88.5824 2.33084 88.5824 2.38422 88.5824C2.97138 88.5824 3.50515 89.0095 3.50515 89.5966C3.50515 90.1838 3.07813 90.7176 2.49097 90.7176C2.38421 90.7176 2.22408 90.7176 2.11733 90.7176L2.17069 90.6642Z"
            fill="white"
        />
        <path
            d="M237.996 108.546C235.433 108.546 233.085 106.784 232.498 104.169C232.177 102.728 232.444 101.18 233.245 99.952C234.046 98.6709 235.273 97.8169 236.768 97.4433C236.981 97.4433 237.195 97.3365 237.355 97.3365C237.942 97.2831 238.476 97.7101 238.529 98.2973C238.583 98.8845 238.156 99.4183 237.569 99.4716C237.462 99.4716 237.302 99.4716 237.195 99.525C236.287 99.7385 235.487 100.272 235.006 101.073C234.526 101.874 234.366 102.781 234.579 103.688C235.006 105.557 236.875 106.731 238.743 106.304C239.65 106.091 240.451 105.557 240.931 104.756C241.412 103.955 241.572 103.048 241.358 102.141C241.358 102.087 241.358 101.98 241.305 101.927C241.145 101.34 241.465 100.753 242.052 100.593C242.64 100.432 243.227 100.753 243.387 101.34C243.387 101.447 243.44 101.607 243.494 101.714C243.814 103.155 243.547 104.703 242.746 105.93C241.946 107.211 240.718 108.066 239.223 108.439C238.796 108.546 238.369 108.599 237.996 108.599V108.546Z"
            fill="white"
        />
        <path
            d="M377.847 164.433C377.366 164.326 376.779 164.38 376.299 164.646L362.901 172.546C361.94 173.134 361.62 174.361 362.207 175.322C362.794 176.283 364.022 176.603 364.982 176.016L378.38 168.116C379.341 167.529 379.661 166.301 379.074 165.34C378.807 164.86 378.327 164.54 377.847 164.433Z"
            fill="white"
        />
        <path
            d="M347.741 133.207C347.528 133.207 347.261 133.153 347.101 132.993C345.766 131.926 344.966 130.324 344.966 128.563C344.966 125.467 347.474 122.958 350.57 122.958C353.666 122.958 356.175 125.467 356.175 128.563C356.175 131.659 355.535 131.552 354.414 132.62C353.987 133.047 353.293 132.993 352.919 132.62C352.492 132.192 352.545 131.499 352.919 131.125C353.613 130.484 353.987 129.577 353.987 128.616C353.987 126.695 352.439 125.147 350.517 125.147C348.595 125.147 347.047 126.695 347.047 128.616C347.047 130.538 347.528 130.698 348.382 131.338C348.862 131.712 348.916 132.353 348.542 132.833C348.328 133.1 348.008 133.26 347.688 133.26L347.741 133.207Z"
            fill="white"
        />
        <path
            d="M43.8057 193.204C43.3253 193.204 42.8983 193.15 42.4179 193.044C40.9767 192.67 39.749 191.763 38.9483 190.481C38.1476 189.2 37.9341 187.706 38.3078 186.211C38.6814 184.77 39.5888 183.542 40.8699 182.742C41.3503 182.421 42.0442 182.582 42.3111 183.115C42.578 183.649 42.4713 184.29 41.9375 184.556C41.1368 185.037 40.5496 185.784 40.3361 186.692C40.1226 187.599 40.2294 188.56 40.7098 189.307C41.1902 190.108 41.9375 190.695 42.8449 190.909C43.7523 191.122 44.7131 191.015 45.4604 190.535C47.1152 189.521 47.6489 187.386 46.6348 185.731C46.3145 185.25 46.4746 184.556 47.0084 184.29C47.4888 183.969 48.1827 184.129 48.4496 184.663C50.051 187.332 49.1969 190.802 46.528 192.403C45.6206 192.937 44.6598 193.204 43.6456 193.204H43.8057Z"
            fill="white"
        />
        <path
            d="M84.4266 164.059C84.8003 164.433 85.2807 164.646 85.8678 164.646H101.454C102.575 164.753 103.483 163.846 103.483 162.725C103.483 161.604 102.575 160.696 101.508 160.696H85.9212C84.8003 160.59 83.8928 161.497 83.8928 162.618C83.8928 163.152 84.1063 163.686 84.48 164.059H84.4266Z"
            fill="white"
        />
        <path
            d="M149.388 72.1953H149.174C148.747 72.3555 148.534 72.7825 148.641 73.2095C149.068 74.9176 149.815 77.7467 150.028 78.8142C150.082 79.0811 150.189 79.2947 150.455 79.4548C150.722 79.6149 150.989 79.6683 151.256 79.6149C151.843 79.4548 152.377 79.348 152.964 79.1879C153.872 78.9744 154.779 78.7075 155.687 78.494C155.74 78.494 156.274 78.3338 156.807 78.2271C157.235 78.1203 157.501 77.6933 157.395 77.3197C157.288 76.8926 156.861 76.6257 156.434 76.7325C155.74 76.8926 155.099 77.0528 154.405 77.2129C153.605 77.373 152.804 77.5865 152.003 77.7467C151.683 77.8001 151.523 77.7467 151.416 77.373C151.256 76.7859 151.149 76.1987 150.989 75.6115C150.776 74.7041 150.562 73.7967 150.295 72.8893C150.189 72.4622 149.762 72.1953 149.335 72.3021L149.388 72.1953Z"
            fill="white"
        />
        <path
            d="M151.043 79.8818C150.776 79.8818 150.562 79.8285 150.349 79.6683C150.082 79.5082 149.922 79.2413 149.815 78.8677C149.548 77.8535 148.907 75.1846 148.427 73.263C148.267 72.7292 148.641 72.142 149.174 71.9819H149.388C149.655 71.8751 149.975 71.8751 150.188 72.0352C150.455 72.1954 150.616 72.4089 150.669 72.6758L151.79 77.1596C151.79 77.3731 151.897 77.3731 152.057 77.3197L156.487 76.3055C156.754 76.2521 157.074 76.3055 157.288 76.4656C157.555 76.6258 157.715 76.8393 157.768 77.1596C157.875 77.7467 157.555 78.2805 156.968 78.4406L156.327 78.6008C156.06 78.6542 155.9 78.7075 155.847 78.7075L153.071 79.4014C152.484 79.5616 151.95 79.6683 151.363 79.8285C151.256 79.8285 151.149 79.8285 151.043 79.8285V79.8818ZM149.495 72.4623H149.281C149.014 72.569 148.854 72.8893 148.907 73.1562C149.388 75.0778 150.082 77.7467 150.295 78.7609C150.349 78.9744 150.455 79.1345 150.616 79.2413C150.829 79.3481 150.989 79.4014 151.203 79.3481C151.79 79.1879 152.324 79.0812 152.911 78.921L155.633 78.2271C155.633 78.2271 155.847 78.1738 156.113 78.1204L156.754 77.9602C157.021 77.9069 157.181 77.64 157.128 77.3731C157.128 77.2129 157.021 77.1062 156.914 76.9994C156.807 76.8927 156.647 76.8927 156.541 76.946L152.11 77.9602C151.63 78.067 151.363 77.8535 151.203 77.4264L150.082 72.9427C150.082 72.7825 149.975 72.6758 149.815 72.6224C149.655 72.569 149.548 72.5157 149.388 72.6224L149.495 72.4623Z"
            fill="white"
        />
        <path
            d="M9.3769 4.1915V4.40501C9.27014 4.83204 9.53704 5.25905 9.96406 5.31243C11.6722 5.68608 14.5012 6.27325 15.6222 6.54014C15.889 6.59352 16.1559 6.59351 16.3695 6.43338C16.6363 6.27324 16.7965 6.05974 16.8499 5.79285C16.9566 5.20569 17.1167 4.6719 17.2235 4.08474C17.437 3.17731 17.5972 2.2165 17.8107 1.30907C17.8107 1.25569 17.9174 0.721918 18.0776 0.188136C18.1843 -0.23889 17.9174 -0.665926 17.4904 -0.772682C17.0634 -0.879439 16.6364 -0.612544 16.5296 -0.185518C16.3695 0.508399 16.2093 1.14893 16.0492 1.84285C15.8357 2.64352 15.6755 3.44419 15.462 4.24487C15.4087 4.56514 15.1951 4.6719 14.8749 4.61852C14.2877 4.51177 13.7005 4.35162 13.1134 4.24487C12.2059 4.03135 11.2985 3.81785 10.3377 3.60434C9.91069 3.49758 9.48366 3.76446 9.3769 4.24487V4.1915Z"
            fill="white"
        />
        <path
            d="M15.8888 6.86043C15.782 6.86043 15.6753 6.86043 15.5152 6.86043C14.501 6.64692 11.8321 6.05974 9.91044 5.63272C9.37666 5.52596 9.00301 4.93881 9.10977 4.40503V4.19152C9.21652 3.92463 9.37667 3.65772 9.59018 3.49759C9.8037 3.33746 10.124 3.28408 10.3909 3.33746L14.8746 4.35164C15.0881 4.35164 15.0881 4.35165 15.1415 4.19152L16.2091 -0.238886C16.2625 -0.505778 16.4226 -0.772659 16.6895 -0.879415C16.9564 -1.03955 17.2233 -1.09293 17.4902 -0.986178C18.0773 -0.826044 18.3976 -0.292265 18.2908 0.294896L18.1307 0.988823C18.1307 1.20234 18.0239 1.36246 18.0239 1.41584L17.0631 5.89961C17.0098 6.27326 16.7962 6.54015 16.4226 6.75367C16.2625 6.86042 16.0489 6.91379 15.8354 6.91379L15.8888 6.86043ZM10.1773 3.81786C10.0706 3.81786 9.96382 3.81787 9.91044 3.92463C9.80368 3.978 9.69693 4.13813 9.69693 4.24488V4.45841C9.59017 4.7253 9.80369 4.99218 10.0706 5.04556C11.9922 5.47258 14.6611 6.05975 15.7287 6.27326C15.9422 6.32664 16.1557 6.27326 16.3158 6.21988C16.5293 6.11313 16.6361 5.95299 16.6895 5.73948L17.6503 1.25571C17.6503 1.25571 17.6503 1.04219 17.757 0.828678L17.9172 0.134768C17.9705 -0.132123 17.8104 -0.399021 17.5435 -0.505778C17.3834 -0.505778 17.2233 -0.505778 17.1165 -0.505778C17.0097 -0.452399 16.903 -0.292261 16.903 -0.185505L15.8354 4.24488C15.7287 4.72529 15.4084 4.88542 14.928 4.77866L10.4442 3.76448C10.4442 3.76448 10.3909 3.76448 10.3375 3.76448L10.1773 3.81786Z"
            fill="white"
        />
        <path
            d="M134.976 132.032V132.246C134.976 132.673 135.349 132.993 135.776 132.993C137.538 132.993 140.42 132.993 141.541 132.993C141.808 132.993 142.075 132.94 142.289 132.726C142.502 132.513 142.609 132.246 142.609 131.979C142.609 131.392 142.609 130.805 142.609 130.217C142.609 129.257 142.609 128.349 142.609 127.388C142.609 127.335 142.609 126.801 142.609 126.214C142.609 125.787 142.289 125.467 141.862 125.413C141.435 125.413 141.061 125.734 141.061 126.214C141.061 126.908 141.061 127.602 141.061 128.296C141.061 129.097 141.061 129.951 141.061 130.751C141.061 131.072 140.901 131.232 140.58 131.232C139.993 131.232 139.406 131.232 138.766 131.232C137.805 131.232 136.897 131.232 135.937 131.232C135.51 131.232 135.136 131.605 135.136 132.032H134.976Z"
            fill="white"
        />
        <path
            d="M135.776 133.26C135.189 133.26 134.762 132.78 134.709 132.246V132.032C134.709 131.765 134.816 131.499 134.976 131.285C135.189 131.072 135.456 130.965 135.723 130.965H140.367C140.58 130.965 140.58 130.965 140.58 130.751V126.214C140.634 125.947 140.794 125.68 140.954 125.467C141.168 125.253 141.435 125.147 141.701 125.2C142.289 125.2 142.716 125.68 142.716 126.268V126.855C142.716 127.122 142.716 127.335 142.716 127.388V131.979C142.769 132.353 142.662 132.673 142.395 132.94C142.182 133.153 141.862 133.26 141.488 133.26C141.381 133.26 141.274 133.26 141.114 133.26C139.94 133.26 137.645 133.26 135.67 133.26H135.776ZM141.755 125.68C141.595 125.68 141.488 125.68 141.381 125.84C141.274 125.947 141.221 126.054 141.221 126.214V130.751C141.168 131.232 140.901 131.499 140.42 131.499H135.776C135.616 131.499 135.51 131.552 135.403 131.659C135.296 131.765 135.243 131.872 135.243 132.032V132.246C135.243 132.513 135.51 132.78 135.776 132.726C137.912 132.726 140.527 132.726 141.541 132.726C141.755 132.726 141.968 132.673 142.075 132.566C142.235 132.406 142.342 132.246 142.342 132.032V127.442C142.289 127.442 142.289 127.175 142.289 126.908V126.321C142.289 126.054 142.075 125.787 141.808 125.787L141.755 125.68Z"
            fill="white"
        />
        <path
            d="M52.133 52.2853V52.4988C52.133 52.9258 52.5066 53.2461 52.9337 53.2461C54.6952 53.2461 57.5776 53.2461 58.6985 53.2461C58.9654 53.2461 59.2323 53.1927 59.4458 52.9792C59.6593 52.7657 59.7661 52.4988 59.7661 52.2319C59.7661 51.6447 59.7661 51.0576 59.7661 50.4704C59.7661 49.5096 59.7661 48.6022 59.7661 47.6414C59.7661 47.588 59.7661 47.0542 59.7661 46.467C59.7661 46.04 59.4458 45.7197 59.0188 45.6664C58.5918 45.6664 58.2181 45.9866 58.2181 46.467C58.2181 47.161 58.2181 47.8549 58.2181 48.5488C58.2181 49.3495 58.2181 50.2035 58.2181 51.0042C58.2181 51.3245 58.058 51.4846 57.7377 51.4846C57.1505 51.4846 56.5634 51.4846 55.9229 51.4846C54.962 51.4846 54.0546 51.4846 53.0938 51.4846C52.6668 51.4846 52.2931 51.8582 52.2931 52.2853H52.133Z"
            fill="white"
        />
        <path
            d="M52.9335 53.5664C52.3464 53.5664 51.9193 53.086 51.866 52.5522V52.3387C51.866 52.0718 51.9727 51.8049 52.1328 51.5914C52.3464 51.3779 52.6132 51.2711 52.8801 51.2711H57.524C57.7376 51.2711 57.7376 51.2711 57.7376 51.0576V46.5204C57.7909 46.2535 57.9511 45.9867 58.1112 45.7731C58.3247 45.5596 58.5916 45.5063 58.8585 45.5063C59.4457 45.5063 59.8727 45.9867 59.8727 46.5738V47.2677C59.8727 47.4812 59.8727 47.6948 59.8727 47.6948V52.2853C59.9261 52.6589 59.8193 52.9792 59.5524 53.2461C59.3389 53.4596 59.0186 53.6197 58.645 53.5664C57.4707 53.5664 54.0011 53.5664 52.8801 53.5664H52.9335ZM52.3997 52.3387V52.5522C52.3997 52.8191 52.6666 53.0326 52.9335 53.0326C54.0545 53.0326 57.5241 53.0326 58.6984 53.0326C58.9119 53.0326 59.1254 52.9792 59.2322 52.8724C59.3923 52.7123 59.499 52.5522 59.499 52.3387V47.7481C59.4457 47.7481 59.4457 47.5346 59.4457 47.2677V46.5738C59.4457 46.3069 59.2322 46.04 58.9653 46.04C58.8051 46.04 58.6984 46.04 58.5916 46.2002C58.4849 46.3069 58.4315 46.4137 58.4315 46.5738V51.111C58.3781 51.5914 58.1112 51.8583 57.6308 51.8583H52.9869C52.8268 51.8583 52.72 51.9116 52.6132 52.0184C52.5065 52.1251 52.4531 52.2319 52.4531 52.392L52.3997 52.3387Z"
            fill="white"
        />
        <path
            d="M48.503 148.686L48.6097 148.526C48.8232 148.153 48.7165 147.672 48.3428 147.459C46.8482 146.551 44.3395 145.003 43.432 144.416C43.2185 144.256 42.9516 144.203 42.6848 144.256C42.3645 144.309 42.151 144.47 41.9908 144.736C41.6706 145.217 41.4037 145.751 41.0834 146.231C40.603 147.032 40.1226 147.832 39.5888 148.686C39.5888 148.74 39.2685 149.167 39.0016 149.647C38.7881 150.021 38.8949 150.501 39.2152 150.715C39.5888 150.982 40.0692 150.875 40.3361 150.501C40.7097 149.914 41.0834 149.327 41.457 148.793C41.8841 148.099 42.3645 147.405 42.7915 146.711C42.9516 146.445 43.1652 146.391 43.432 146.551C43.9658 146.872 44.4462 147.192 44.98 147.512C45.7807 147.993 46.5814 148.526 47.382 149.007C48.1827 149.487 48.2361 149.113 48.503 148.74V148.686Z"
            fill="white"
        />
        <path
            d="M39.6956 151.088C39.4821 151.088 39.2686 151.035 39.1085 150.928C38.6281 150.608 38.4679 149.967 38.7882 149.487L39.1619 148.9C39.2686 148.686 39.3754 148.58 39.3754 148.526L40.8699 146.071C41.1902 145.59 41.4571 145.057 41.7774 144.576C41.9909 144.256 42.2578 144.042 42.6314 143.989C42.9517 143.936 43.272 143.989 43.5922 144.203C44.4463 144.736 46.7416 146.178 48.503 147.245C48.9834 147.565 49.1436 148.206 48.8767 148.686L48.7699 148.846C48.6098 149.113 48.3963 149.273 48.1294 149.327C47.8625 149.38 47.5422 149.327 47.3287 149.22L43.4321 146.765C43.272 146.658 43.2186 146.658 43.1118 146.818L40.6564 150.608C40.4963 150.875 40.2828 151.035 39.9625 151.088C39.9091 151.088 39.8024 151.088 39.749 151.088H39.6956ZM42.8449 144.469H42.7382C42.5247 144.469 42.3645 144.63 42.2578 144.79C41.9375 145.27 41.6706 145.804 41.3504 146.284L39.8558 148.74C39.8558 148.74 39.749 148.9 39.6423 149.113L39.2686 149.701C39.1085 149.914 39.1619 150.234 39.4287 150.394C39.5355 150.501 39.6956 150.501 39.8558 150.501C40.0159 150.501 40.1227 150.394 40.176 150.288L42.6314 146.498C42.8983 146.124 43.272 146.017 43.6456 146.284L47.5422 148.74C47.649 148.793 47.8091 148.846 47.9693 148.793C48.1294 148.793 48.2362 148.686 48.2895 148.526L48.3963 148.366C48.5564 148.099 48.4497 147.779 48.2361 147.672C46.4747 146.605 44.1794 145.217 43.3253 144.63C43.1652 144.523 43.0051 144.469 42.8983 144.469H42.8449Z"
            fill="white"
        />
        <path
            d="M224.438 186.425V186.638C224.438 187.065 224.705 187.439 225.185 187.439C226.946 187.546 229.829 187.759 230.95 187.866C231.217 187.866 231.484 187.866 231.697 187.652C231.911 187.439 232.071 187.225 232.071 186.905C232.071 186.318 232.124 185.731 232.177 185.144C232.231 184.183 232.284 183.275 232.338 182.315C232.338 182.261 232.338 181.727 232.444 181.14C232.551 180.553 232.178 180.34 231.75 180.286C231.323 180.286 230.896 180.553 230.896 180.98C230.843 181.674 230.79 182.368 230.683 183.009C230.63 183.809 230.523 184.663 230.469 185.464C230.469 185.784 230.256 185.891 229.936 185.891C229.348 185.891 228.761 185.784 228.121 185.731C227.16 185.677 226.252 185.571 225.292 185.517C224.331 185.464 224.491 185.838 224.438 186.265V186.425Z"
            fill="white"
        />
        <path
            d="M231.057 188.186C231.057 188.186 230.95 188.186 230.897 188.186C229.829 188.079 227.107 187.919 225.132 187.759C224.544 187.759 224.117 187.225 224.171 186.638V186.425C224.171 186.158 224.331 185.891 224.545 185.677C224.758 185.464 225.025 185.411 225.345 185.411L229.936 185.784C230.149 185.784 230.149 185.784 230.149 185.624L230.576 181.087C230.576 180.82 230.736 180.553 230.95 180.34C231.163 180.179 231.43 180.073 231.751 180.126C232.338 180.179 232.765 180.713 232.711 181.247L232.605 182.528L232.444 185.197C232.444 185.784 232.391 186.371 232.338 186.958C232.338 187.332 232.124 187.652 231.857 187.866C231.644 188.026 231.377 188.133 231.057 188.133V188.186ZM225.238 185.998C225.132 185.998 224.972 185.998 224.918 186.104C224.811 186.211 224.758 186.318 224.758 186.478V186.692C224.758 186.958 224.972 187.225 225.238 187.225C227.213 187.385 229.936 187.546 231.003 187.652C231.27 187.652 231.43 187.652 231.59 187.492C231.751 187.332 231.857 187.172 231.857 186.958C231.857 186.371 231.911 185.784 231.964 185.197L232.231 181.194C232.231 180.927 232.071 180.66 231.751 180.66C231.59 180.66 231.484 180.66 231.324 180.767C231.217 180.873 231.163 180.98 231.11 181.14L230.683 185.677C230.683 186.158 230.363 186.371 229.882 186.318L225.292 185.944L225.238 185.998Z"
            fill="white"
        />
        <path
            d="M370.641 90.9845V91.198C370.641 91.6251 370.908 91.9987 371.388 91.9987C373.149 92.1055 376.032 92.319 377.153 92.4257C377.42 92.4257 377.687 92.4257 377.9 92.2122C378.114 91.9987 378.274 91.7852 378.274 91.4649C378.274 90.8778 378.327 90.2906 378.38 89.7034C378.434 88.7426 378.487 87.8352 378.541 86.8744C378.541 86.821 378.541 86.2872 378.647 85.7001C378.754 85.1129 378.38 84.8994 377.953 84.846C377.526 84.846 377.099 85.1129 377.099 85.5399C377.046 86.2339 376.993 86.9278 376.886 87.5683C376.833 88.369 376.726 89.223 376.672 90.0237C376.672 90.344 376.459 90.4507 376.139 90.4507C375.551 90.4507 374.964 90.344 374.324 90.2906C373.363 90.2372 372.456 90.1304 371.495 90.0771C370.534 90.0237 370.694 90.3973 370.641 90.8244V90.9845Z"
            fill="white"
        />
        <path
            d="M377.26 92.6926C377.26 92.6926 377.153 92.6926 377.1 92.6926C376.032 92.5858 373.31 92.4257 371.335 92.2655C370.748 92.2655 370.321 91.7317 370.374 91.1446V90.9311C370.374 90.6642 370.534 90.3973 370.748 90.1838C370.961 89.9703 371.228 89.9169 371.548 89.9169L376.139 90.2905C376.352 90.2905 376.352 90.2905 376.352 90.077L376.779 85.5399C376.779 85.273 376.939 85.0061 377.153 84.7926C377.366 84.6325 377.633 84.5257 377.954 84.5791C378.541 84.6324 378.968 85.1662 378.914 85.7V86.3406C378.861 86.6075 378.808 86.8209 378.808 86.8743L378.487 91.4649C378.487 91.8385 378.274 92.1588 378.007 92.3723C377.74 92.5858 377.527 92.6392 377.206 92.6392L377.26 92.6926ZM370.908 90.9845V91.198C370.908 91.4649 371.121 91.7318 371.388 91.7318C373.363 91.8919 376.085 92.052 377.153 92.1588C377.42 92.1588 377.58 92.1588 377.687 91.9987C377.847 91.8385 377.954 91.6784 377.954 91.4649L378.274 86.8743C378.274 86.8743 378.274 86.6075 378.274 86.3406V85.7C378.327 85.4331 378.167 85.1662 377.847 85.1662C377.687 85.1662 377.527 85.1662 377.42 85.273C377.313 85.3798 377.26 85.4865 377.206 85.6466L376.779 90.1838C376.779 90.6642 376.459 90.8777 375.979 90.8243L371.388 90.4507C371.228 90.4507 371.121 90.4507 371.014 90.5574C370.908 90.6642 370.854 90.771 370.854 90.9311L370.908 90.9845Z"
            fill="white"
        />
        <path
            d="M244.882 57.3029H244.668C244.241 57.1961 243.868 57.5164 243.761 57.9434C243.44 59.6515 242.96 62.5339 242.747 63.6015C242.747 63.8684 242.747 64.1353 242.853 64.3488C243.013 64.6157 243.227 64.7758 243.547 64.8292C244.134 64.9359 244.668 65.0427 245.255 65.0961C246.163 65.2562 247.124 65.4163 248.031 65.5765C248.084 65.5765 248.618 65.6832 249.152 65.79C249.686 65.8967 249.953 65.5765 250.059 65.2028C250.166 64.7758 249.899 64.3488 249.419 64.242C248.725 64.0819 248.084 63.9751 247.39 63.815C246.59 63.6549 245.789 63.4947 244.935 63.3346C244.615 63.2812 244.508 63.1211 244.561 62.8008C244.668 62.2136 244.775 61.6265 244.882 61.0393C245.042 60.1319 245.202 59.1711 245.362 58.2637C245.415 57.8366 245.149 57.4096 244.722 57.3562L244.882 57.3029Z"
            fill="white"
        />
        <path
            d="M249.366 66.0569C249.312 66.0569 249.259 66.0569 249.152 66.0569L248.458 65.9501C248.191 65.9501 248.031 65.8967 248.031 65.8433L245.255 65.3629C244.668 65.2562 244.134 65.1494 243.547 65.096C243.174 65.0427 242.907 64.8292 242.693 64.5089C242.533 64.242 242.48 63.9217 242.533 63.5481C242.747 62.4271 243.28 59.2244 243.547 57.89C243.654 57.3028 244.188 56.9292 244.722 57.0359H244.935C245.202 57.0893 245.469 57.2494 245.629 57.5163C245.789 57.7299 245.843 58.0501 245.789 58.317L244.935 62.8542C244.935 63.0677 244.935 63.0677 245.095 63.1211L249.526 64.0285C249.793 64.0819 250.059 64.242 250.22 64.5089C250.38 64.7224 250.433 65.0427 250.38 65.3096C250.273 65.8433 249.846 66.1636 249.366 66.1636V66.0569ZM244.562 57.5163C244.295 57.5163 244.081 57.6765 244.028 57.9434C243.814 59.2778 243.227 62.4805 243.014 63.6015C243.014 63.815 243.014 64.0285 243.067 64.1886C243.174 64.4021 243.334 64.5089 243.547 64.5089C244.134 64.6156 244.668 64.7224 245.255 64.7758L248.031 65.2562C248.031 65.2562 248.245 65.2562 248.511 65.3629L249.205 65.4697C249.472 65.4697 249.739 65.3629 249.793 65.0427C249.793 64.8825 249.793 64.7224 249.739 64.6156C249.686 64.5089 249.526 64.4021 249.419 64.4021L244.989 63.4947C244.508 63.3879 244.348 63.0677 244.401 62.6407L245.255 58.1035C245.255 57.9434 245.255 57.8366 245.149 57.7298C245.042 57.6231 244.935 57.5163 244.828 57.5163H244.615C244.615 57.5163 244.615 57.5163 244.562 57.5163Z"
            fill="white"
        />
        <path
            d="M305.039 171.959H304.825C304.398 171.853 304.024 172.173 303.918 172.6C303.651 174.308 303.224 177.19 303.01 178.311C303.01 178.578 303.01 178.845 303.117 179.059C303.277 179.325 303.491 179.486 303.811 179.486C304.398 179.592 304.932 179.646 305.519 179.752C306.48 179.913 307.387 180.019 308.348 180.18C308.401 180.18 308.935 180.286 309.469 180.393C309.896 180.446 310.27 180.18 310.376 179.752C310.483 179.325 310.163 178.898 309.736 178.845C309.042 178.738 308.401 178.578 307.707 178.471C306.907 178.311 306.106 178.151 305.252 178.044C304.932 177.991 304.825 177.831 304.878 177.511C304.985 176.923 305.092 176.336 305.199 175.749C305.359 174.842 305.519 173.881 305.679 172.973C305.839 172.066 305.466 172.119 304.985 172.066L305.039 171.959Z"
            fill="white"
        />
        <path
            d="M309.683 180.66C309.629 180.66 309.576 180.66 309.522 180.66L308.935 180.553C308.668 180.553 308.455 180.446 308.402 180.446L303.864 179.752C303.491 179.699 303.224 179.486 303.01 179.165C302.85 178.898 302.797 178.578 302.85 178.204C303.01 177.404 303.277 175.482 303.758 172.493C303.864 171.906 304.398 171.532 304.932 171.586H305.145C305.412 171.639 305.679 171.799 305.839 172.013C306 172.226 306.053 172.546 306.053 172.813L305.306 177.35C305.306 177.564 305.306 177.564 305.466 177.617L309.95 178.418C310.216 178.418 310.483 178.632 310.643 178.845C310.804 179.059 310.857 179.379 310.804 179.646C310.697 180.179 310.27 180.5 309.789 180.5L309.683 180.66ZM304.772 172.226C304.505 172.226 304.291 172.386 304.238 172.653C303.758 175.642 303.491 177.564 303.331 178.365C303.331 178.578 303.331 178.792 303.437 178.952C303.544 179.165 303.704 179.272 303.971 179.272L308.508 179.966C308.508 179.966 308.775 179.966 309.042 180.073L309.629 180.179C309.896 180.179 310.163 180.019 310.216 179.752C310.216 179.592 310.216 179.432 310.163 179.325C310.11 179.219 309.95 179.112 309.843 179.112L305.359 178.311C304.879 178.204 304.665 177.938 304.772 177.457L305.519 172.92C305.519 172.76 305.519 172.653 305.412 172.546C305.306 172.44 305.199 172.333 305.039 172.333H304.825C304.825 172.333 304.825 172.333 304.772 172.333V172.226Z"
            fill="white"
        />
        <path
            d="M201.005 114.845L201.111 114.684C201.272 114.311 201.111 113.83 200.738 113.67C199.136 112.923 196.521 111.695 195.507 111.215C195.24 111.108 195.026 111.055 194.759 111.108C194.492 111.215 194.279 111.375 194.119 111.642C193.852 112.176 193.638 112.709 193.372 113.243C192.998 114.097 192.571 114.951 192.197 115.805C192.197 115.859 191.93 116.339 191.717 116.873C191.557 117.247 191.717 117.727 192.09 117.887C192.464 118.101 192.945 117.887 193.158 117.513C193.478 116.873 193.745 116.286 194.065 115.645C194.439 114.898 194.813 114.151 195.186 113.403C195.347 113.136 195.507 113.03 195.827 113.19C196.361 113.457 196.895 113.724 197.428 113.937C198.282 114.364 199.136 114.738 199.99 115.165C200.418 115.378 200.845 115.165 201.058 114.791L201.005 114.845Z"
            fill="white"
        />
        <path
            d="M192.411 118.261C192.251 118.261 192.091 118.261 191.93 118.154C191.397 117.887 191.183 117.247 191.45 116.766L191.717 116.232C191.824 115.965 191.93 115.805 191.93 115.752L193.105 113.19C193.372 112.656 193.585 112.122 193.852 111.588C194.012 111.268 194.279 111.001 194.653 110.894C194.973 110.788 195.293 110.841 195.614 111.001C196.681 111.535 199.83 112.976 200.845 113.457C201.378 113.67 201.592 114.311 201.378 114.845L201.272 115.005C201.165 115.272 200.951 115.485 200.685 115.592C200.418 115.699 200.151 115.699 199.884 115.592L195.72 113.617C195.56 113.51 195.507 113.563 195.453 113.724L193.425 117.78C193.318 118.047 193.105 118.207 192.785 118.314C192.678 118.314 192.571 118.367 192.464 118.367L192.411 118.261ZM194.973 111.322C194.92 111.322 194.866 111.322 194.76 111.322C194.546 111.375 194.386 111.535 194.279 111.695C194.012 112.229 193.799 112.763 193.532 113.297L192.357 115.859C192.357 115.859 192.251 116.072 192.144 116.339L191.877 116.873C191.77 117.14 191.877 117.407 192.091 117.567C192.251 117.62 192.358 117.674 192.518 117.567C192.678 117.567 192.785 117.407 192.838 117.3L194.866 113.243C195.08 112.816 195.4 112.709 195.88 112.923L200.044 114.898C200.151 114.951 200.311 114.951 200.471 114.898C200.578 114.898 200.685 114.738 200.791 114.631L200.898 114.471C201.005 114.204 200.898 113.884 200.631 113.777C199.617 113.297 196.468 111.855 195.4 111.322C195.24 111.268 195.133 111.215 195.026 111.215L194.973 111.322Z"
            fill="white"
        />
        <path
            d="M111.436 104.009C110.635 104.009 109.781 103.849 108.98 103.422C106.205 102.087 105.03 98.6709 106.365 95.8953C107.112 94.2939 108.553 93.173 110.315 92.8527C110.902 92.746 111.436 93.1196 111.596 93.7068C111.703 94.2939 111.329 94.8277 110.742 94.9878C109.674 95.2014 108.767 95.8953 108.287 96.9095C107.432 98.6176 108.18 100.753 109.888 101.553C111.596 102.407 113.731 101.66 114.532 99.952C114.799 99.3648 114.905 98.7777 114.852 98.1372C114.852 97.55 115.226 97.0162 115.813 96.9628C116.4 96.9095 116.934 97.3365 116.987 97.9236C117.094 98.9378 116.88 99.952 116.453 100.859C115.493 102.834 113.464 104.009 111.382 104.009H111.436Z"
            fill="white"
        />
    </g>
    <defs>
        <clipPath id="clip0_1713_9214">
            <rect width="464" height="458.887" fill="white" transform="translate(-84 -127.944)" />
        </clipPath>
    </defs>
</svg>
