<svg width="122" height="131" viewBox="0 0 122 131" fill="none" xmlns="http://www.w3.org/2000/svg">
<g clip-path="url(#clip0_951_13864)">
<path d="M26.682 53.149C20.9763 47.5321 18.5665 41.6722 19.8962 36.6491C21.6028 30.2029 29.1842 25.7459 40.6964 24.4209L40.7389 24.7907C29.3869 26.0971 21.9212 30.4541 20.256 36.7443C18.9618 41.6328 21.3367 47.3646 26.9431 52.8839L26.682 53.149Z" fill="#F0F0F0"/>
<path d="M81.7319 73.0875C74.6108 73.0875 66.8724 72.0293 59.186 69.9944C49.6808 67.478 40.9655 63.6798 33.9824 59.0102L34.1892 58.7009C41.1387 63.3479 49.8153 67.1288 59.2812 69.6346C67.8354 71.8994 76.4538 72.9487 84.2014 72.6718L84.2148 73.0436C83.3966 73.073 82.569 73.0877 81.7319 73.0875Z" fill="#F0F0F0"/>
<path d="M98.0689 70.7475L97.9497 70.395C104.319 68.2416 108.302 64.7728 109.469 60.3633C110.953 54.7576 107.729 48.2527 100.391 42.0466C93.0159 35.809 82.3803 30.6334 70.4434 27.4733L70.5386 27.1135C82.5277 30.2875 93.2151 35.4899 100.632 41.7625C108.086 48.0665 111.352 54.7062 109.829 60.4585C108.628 64.9945 104.562 68.5523 98.0689 70.7475Z" fill="#F0F0F0"/>
<path d="M39.5872 73.2429C25.5946 67.037 14.8123 58.9857 9.22656 50.5718L9.53655 50.366C15.0837 58.7216 25.8094 66.7252 39.738 72.9028L39.5872 73.2429Z" fill="#F0F0F0"/>
<path d="M88.7846 83.9941C87.3414 83.9941 85.8734 83.9619 84.3809 83.8975L84.3968 83.5257C95.5354 84.008 105.363 82.675 112.819 79.6702L112.959 80.0154C106.454 82.6363 98.1639 83.9941 88.7846 83.9941Z" fill="#F0F0F0"/>
<path d="M80.6666 24.7548C78.3539 24.0019 75.975 23.3008 73.5962 22.671C59.9068 19.0469 46.45 17.7602 34.68 18.9506L34.6426 18.5803C46.4564 17.386 59.9593 18.6758 73.6914 22.3112C76.077 22.9428 78.4625 23.6459 80.7818 24.4011L80.6666 24.7548Z" fill="#F0F0F0"/>
<path d="M17.9379 53.7073C12.2321 48.0904 9.82232 42.2306 11.1521 37.2074C12.8587 30.7612 20.44 26.3042 31.9522 24.9792L31.9948 25.349C20.6428 26.6555 13.1771 31.0124 11.5119 37.3026C10.2177 42.1912 12.5926 47.923 18.199 53.4422L17.9379 53.7073Z" fill="#F0F0F0"/>
<path d="M72.9858 73.6456C65.8647 73.6456 58.1263 72.5874 50.4399 70.5525C40.9347 68.0361 32.2194 64.2379 25.2363 59.5683L25.4431 59.259C32.3926 63.906 41.0693 67.6869 50.5351 70.1927C59.0893 72.4575 67.7077 73.5068 75.4553 73.2299L75.4687 73.6017C74.6505 73.6311 73.8229 73.6458 72.9858 73.6456Z" fill="#F0F0F0"/>
<path d="M89.3247 71.3054L89.2055 70.9529C95.5744 68.7995 99.5579 65.3307 100.725 60.9211C102.209 55.3155 98.9853 48.8105 91.6473 42.6045C84.2718 36.3669 73.6362 31.1912 61.6992 28.0312L61.7944 27.6714C73.7835 30.8454 84.4709 36.0478 91.8875 42.3204C99.3415 48.6244 102.608 55.2641 101.085 61.0163C99.8842 65.5524 95.8175 69.1102 89.3247 71.3054Z" fill="#F0F0F0"/>
<path d="M30.843 73.801C16.8505 67.5951 6.06813 59.5438 0.482422 51.1299L0.792407 50.9241C6.33952 59.2797 17.0652 67.2833 30.9938 73.4609L30.843 73.801Z" fill="#F0F0F0"/>
<path d="M80.0405 84.5522C78.5972 84.5522 77.1293 84.52 75.6367 84.4556L75.6527 84.0838C86.7913 84.5661 96.619 83.2331 104.075 80.2283L104.215 80.5735C97.7101 83.1944 89.4198 84.5522 80.0405 84.5522Z" fill="#F0F0F0"/>
<path d="M71.9205 25.313C69.6078 24.56 67.2289 23.8589 64.8501 23.2291C51.1607 19.605 37.7039 18.3183 25.9339 19.5087L25.8965 19.1384C37.7103 17.9441 51.2132 19.2339 64.9453 22.8693C67.3309 23.5009 69.7164 24.204 72.0357 24.9592L71.9205 25.313Z" fill="#F0F0F0"/>
<path d="M29.5378 21.0663C34.2132 21.0663 38.0033 17.2762 38.0033 12.6008C38.0033 7.9254 34.2132 4.13525 29.5378 4.13525C24.8624 4.13525 21.0723 7.9254 21.0723 12.6008C21.0723 17.2762 24.8624 21.0663 29.5378 21.0663Z" fill="#D85874"/>
<path d="M31.5247 17.8032C29.8135 17.8032 28.1408 17.2958 26.7181 16.3452C25.2953 15.3945 24.1864 14.0433 23.5316 12.4624C22.8768 10.8816 22.7055 9.14201 23.0393 7.46377C23.3731 5.78552 24.1971 4.24395 25.407 3.034C26.617 1.82405 28.1586 1.00007 29.8368 0.666242C31.5151 0.332418 33.2546 0.503749 34.8355 1.15857C36.4163 1.81339 37.7675 2.92229 38.7182 4.34504C39.6688 5.76779 40.1762 7.44049 40.1762 9.15162C40.1736 11.4454 39.2613 13.6444 37.6394 15.2664C36.0175 16.8883 33.8184 17.8006 31.5247 17.8032ZM31.5247 0.872131C29.8871 0.872129 28.2864 1.35771 26.9248 2.26747C25.5633 3.17723 24.5021 4.47031 23.8754 5.98318C23.2488 7.49606 23.0848 9.16079 23.4043 10.7669C23.7237 12.3729 24.5123 13.8482 25.6702 15.0061C26.8281 16.164 28.3033 16.9525 29.9094 17.272C31.5155 17.5915 33.1802 17.4275 34.6931 16.8008C36.2059 16.1742 37.499 15.113 38.4088 13.7514C39.3185 12.3899 39.8041 10.7891 39.8041 9.15161C39.8016 6.95652 38.9285 4.85205 37.3764 3.29989C35.8242 1.74772 33.7197 0.874622 31.5247 0.872131Z" fill="#3F3D56"/>
<path d="M107.438 48.6282C110.649 48.6282 113.252 46.0255 113.252 42.8148C113.252 39.6042 110.649 37.0015 107.438 37.0015C104.228 37.0015 101.625 39.6042 101.625 42.8148C101.625 46.0255 104.228 48.6282 107.438 48.6282Z" fill="#D85874"/>
<path d="M108.8 46.4457C107.614 46.4457 106.454 46.0939 105.467 45.4346C104.481 44.7754 103.712 43.8384 103.257 42.7421C102.803 41.6459 102.685 40.4396 102.916 39.2758C103.148 38.112 103.719 37.043 104.558 36.204C105.397 35.3649 106.466 34.7935 107.63 34.5621C108.794 34.3306 110 34.4494 111.096 34.9035C112.192 35.3575 113.129 36.1265 113.789 37.1131C114.448 38.0997 114.8 39.2597 114.8 40.4462C114.798 42.0369 114.165 43.5618 113.041 44.6865C111.916 45.8113 110.391 46.4439 108.8 46.4457ZM108.8 34.8189C107.687 34.8189 106.599 35.1489 105.674 35.7673C104.748 36.3856 104.027 37.2645 103.601 38.2928C103.175 39.321 103.064 40.4525 103.281 41.5441C103.498 42.6357 104.034 43.6384 104.821 44.4254C105.608 45.2124 106.611 45.7483 107.702 45.9655C108.794 46.1826 109.925 46.0711 110.954 45.6452C111.982 45.2193 112.861 44.498 113.479 43.5726C114.098 42.6472 114.428 41.5592 114.428 40.4462C114.426 38.9543 113.832 37.5239 112.778 36.469C111.723 35.414 110.292 34.8206 108.8 34.8189Z" fill="#3F3D56"/>
<path d="M113.553 122.932C112.966 123.138 112.336 123.19 111.723 123.082C111.11 122.974 110.535 122.71 110.054 122.315C108.829 121.287 108.444 119.592 108.132 118.023L107.207 113.382L109.143 114.715C110.535 115.673 111.959 116.663 112.923 118.051C113.887 119.44 114.308 121.336 113.533 122.838" fill="#FD6584"/>
<path d="M113.254 128.874C113.498 127.098 113.748 125.3 113.577 123.506C113.425 121.912 112.939 120.356 111.949 119.08C111.424 118.404 110.785 117.824 110.06 117.368C109.871 117.249 109.698 117.548 109.886 117.667C111.139 118.459 112.109 119.629 112.654 121.008C113.257 122.541 113.354 124.212 113.25 125.841C113.187 126.826 113.054 127.805 112.92 128.782C112.909 128.826 112.916 128.873 112.938 128.912C112.961 128.952 112.997 128.981 113.041 128.995C113.085 129.007 113.132 129.001 113.172 128.978C113.212 128.956 113.241 128.918 113.254 128.874L113.254 128.874Z" fill="#F2F2F2"/>
<path d="M111.499 126.026C111.247 126.408 110.901 126.72 110.494 126.93C110.087 127.14 109.633 127.242 109.175 127.225C107.999 127.169 107.018 126.348 106.135 125.569L103.523 123.263L105.252 123.18C106.495 123.121 107.77 123.065 108.954 123.448C110.139 123.832 111.23 124.754 111.447 125.979" fill="#E6E6E6"/>
<path d="M113.941 129.895C112.769 127.819 111.407 125.512 108.976 124.775C108.3 124.57 107.591 124.497 106.887 124.559C106.665 124.578 106.721 124.92 106.943 124.901C108.122 124.803 109.299 125.114 110.276 125.782C111.216 126.422 111.947 127.311 112.566 128.254C112.946 128.831 113.286 129.434 113.625 130.036C113.733 130.228 114.051 130.089 113.941 129.895Z" fill="#F2F2F2"/>
<path d="M21.5061 125.349C21.9288 125.525 22.3898 125.59 22.8448 125.537C23.2998 125.483 23.7333 125.313 24.1036 125.044C25.0477 124.34 25.4017 123.11 25.6981 121.971L26.5738 118.599L25.0948 119.497C24.0311 120.143 22.943 120.81 22.1752 121.79C21.4074 122.77 21.0189 124.144 21.5249 125.281" fill="#E6E6E6"/>
<path d="M21.6434 129.923C21.4544 127.546 21.2932 124.872 22.8965 122.901C23.3427 122.354 23.8895 121.897 24.5074 121.555C24.7017 121.446 24.8472 121.761 24.6523 121.869C23.6199 122.448 22.8182 123.364 22.3823 124.464C21.9609 125.52 21.8516 126.666 21.8657 127.794C21.8737 128.485 21.9292 129.175 21.9838 129.863C22.0017 130.083 21.661 130.145 21.6434 129.923Z" fill="#F2F2F2"/>
<path d="M18.1321 71.0876C22.7473 71.0876 26.4887 67.3462 26.4887 62.731C26.4887 58.1157 22.7473 54.3743 18.1321 54.3743C13.5168 54.3743 9.77539 58.1157 9.77539 62.731C9.77539 67.3462 13.5168 71.0876 18.1321 71.0876Z" fill="#E4E4E4"/>
<path d="M20.0934 67.8694C18.4039 67.8694 16.7522 67.3683 15.3474 66.4296C13.9425 65.491 12.8476 64.1568 12.201 62.5958C11.5545 61.0348 11.3853 59.3171 11.7149 57.66C12.0446 56.0029 12.8582 54.4807 14.0529 53.286C15.2476 52.0913 16.7698 51.2777 18.4269 50.9481C20.0841 50.6185 21.8017 50.7876 23.3627 51.4342C24.9237 52.0808 26.2578 53.1758 27.1965 54.5806C28.1352 55.9855 28.6362 57.6371 28.6362 59.3267C28.6336 61.5916 27.7328 63.763 26.1312 65.3645C24.5297 66.966 22.3583 67.8668 20.0934 67.8694ZM20.0934 51.1561C18.4775 51.1561 16.8978 51.6353 15.5541 52.5331C14.2105 53.4309 13.1633 54.707 12.5448 56.1999C11.9264 57.6929 11.7646 59.3357 12.0799 60.9207C12.3952 62.5056 13.1733 63.9615 14.316 65.1041C15.4587 66.2468 16.9145 67.025 18.4995 67.3403C20.0844 67.6555 21.7272 67.4937 23.2202 66.8753C24.7132 66.2569 25.9893 65.2097 26.8871 63.866C27.7849 62.5224 28.2641 60.9427 28.2641 59.3267C28.2616 57.1605 27.4 55.0837 25.8683 53.5519C24.3365 52.0201 22.2597 51.1585 20.0934 51.1561Z" fill="#2F2E41"/>
<path d="M13.0881 33.6831C13.9102 33.6831 14.5766 33.0166 14.5766 32.1946C14.5766 31.3725 13.9102 30.7061 13.0881 30.7061C12.266 30.7061 11.5996 31.3725 11.5996 32.1946C11.5996 33.0166 12.266 33.6831 13.0881 33.6831Z" fill="#F2F2F2"/>
<path d="M89.5588 26.2407C90.3809 26.2407 91.0473 25.5743 91.0473 24.7522C91.0473 23.9301 90.3809 23.2637 89.5588 23.2637C88.7367 23.2637 88.0703 23.9301 88.0703 24.7522C88.0703 25.5743 88.7367 26.2407 89.5588 26.2407Z" fill="#FD6584"/>
<path d="M99.4221 79.0827C100.244 79.0827 100.911 78.4163 100.911 77.5942C100.911 76.7721 100.244 76.1057 99.4221 76.1057C98.6 76.1057 97.9336 76.7721 97.9336 77.5942C97.9336 78.4163 98.6 79.0827 99.4221 79.0827Z" fill="#F2F2F2"/>
<path d="M32.7599 38.0186L32.8163 37.6507L40.0863 38.766C39.3454 38.0508 36.892 35.8389 34.6668 35.6146C32.0086 35.3468 30.839 36.4847 30.6844 38.0183C30.5298 39.552 31.4487 40.9005 34.107 41.1684C36.3604 41.3956 39.2503 39.6719 40.0788 39.1414L32.7599 38.0186Z" fill="#F2F2F2"/>
<path d="M102.327 18.3115L102.102 18.0144L107.972 13.5818C106.942 13.614 103.646 13.8299 101.934 15.2683C99.8879 16.9866 99.8878 18.6184 100.879 19.7988C101.871 20.9791 103.478 21.2609 105.524 19.5426C107.258 18.086 108.038 14.8127 108.235 13.8489L102.327 18.3115Z" fill="#F2F2F2"/>
<path d="M88.4676 60.9828L88.3063 60.7691L92.5289 57.5801C91.7884 57.6033 89.4169 57.7586 88.1849 58.7934C86.7131 60.0297 86.713 61.2036 87.4262 62.0528C88.1394 62.902 89.2958 63.1047 90.7677 61.8685C92.0154 60.8206 92.5766 58.4657 92.7187 57.7723L88.4676 60.9828Z" fill="#F2F2F2"/>
<path d="M55.0416 10.2221C56.1857 7.14614 58.8887 4.48827 62.1553 4.17212C60.1914 7.15211 59.3448 10.7307 59.7655 14.2748C59.9326 15.641 60.2608 17.1431 59.5243 18.3059C59.0661 19.0294 58.2585 19.4749 57.426 19.6759C56.5935 19.8769 55.726 19.8613 54.8698 19.8446L54.6781 19.9392C54.0759 16.7131 53.8975 13.2981 55.0416 10.2221Z" fill="#F0F0F0"/>
<path d="M62.172 4.23915C59.9451 5.79486 58.2651 8.01269 57.3705 10.5776C57.1681 11.1263 57.0535 11.7036 57.0308 12.288C57.0271 12.858 57.1762 13.4187 57.4625 13.9116C57.7202 14.3766 58.0376 14.8224 58.1778 15.3419C58.2456 15.6089 58.2562 15.8873 58.2088 16.1586C58.1615 16.43 58.0574 16.6883 57.9033 16.9167C57.534 17.4955 56.9787 17.9072 56.4217 18.2909C55.8033 18.717 55.1542 19.1497 54.7758 19.819C54.73 19.9001 54.6068 19.8242 54.6526 19.7432C55.311 18.5788 56.6926 18.1558 57.5378 17.1667C57.9322 16.7052 58.19 16.122 58.068 15.5074C57.9614 14.97 57.6344 14.51 57.3694 14.0415C57.0831 13.5647 56.9179 13.025 56.8882 12.4697C56.8811 11.886 56.9733 11.3053 57.1609 10.7525C57.5635 9.5013 58.1603 8.32117 58.9295 7.25535C59.8006 6.03407 60.8742 4.9708 62.1038 4.11155C62.18 4.0584 62.2476 4.18634 62.172 4.23915Z" fill="white"/>
<path d="M57.6088 9.73481C57.1988 9.5263 56.8763 9.17884 56.6989 8.7545C56.5215 8.33016 56.5007 7.85657 56.6402 7.4183C56.6687 7.32972 56.8077 7.3699 56.7791 7.4586C56.6485 7.86647 56.6679 8.30763 56.8339 8.70243C57 9.09724 57.3017 9.4197 57.6845 9.6116C57.7677 9.6534 57.6915 9.77637 57.6088 9.73481Z" fill="white"/>
<path d="M57.3001 13.6931C58.1967 13.41 58.9536 12.7993 59.4199 11.9828C59.466 11.9019 59.5892 11.9778 59.5431 12.0586C59.0563 12.9073 58.2673 13.5412 57.3337 13.8338C57.2447 13.8617 57.2116 13.7208 57.3001 13.6931Z" fill="white"/>
<path d="M59.8984 6.19857C60.0402 6.3123 60.2081 6.38903 60.3868 6.42187C60.5656 6.4547 60.7498 6.44262 60.9228 6.3867C61.0114 6.35775 61.0443 6.49864 60.9563 6.5274C60.7649 6.58829 60.5615 6.60139 60.3639 6.56555C60.1663 6.52971 59.9805 6.44601 59.8227 6.32178C59.8068 6.31132 59.7955 6.29521 59.7911 6.27673C59.7867 6.25825 59.7895 6.23879 59.7989 6.22229C59.809 6.20603 59.8252 6.19441 59.8438 6.18997C59.8624 6.18553 59.882 6.18862 59.8984 6.19857Z" fill="white"/>
<path d="M70.0306 12.0129C69.9758 12.0326 69.921 12.0522 69.8658 12.073C69.1302 12.341 68.4176 12.6683 67.735 13.0516C67.6818 13.0804 67.6282 13.1104 67.5759 13.1407C65.9413 14.0818 64.4955 15.3182 63.3122 16.7871C62.8419 17.3721 62.4167 17.9919 62.0404 18.6414C61.5208 19.5383 61.0288 20.5522 60.2657 21.2058C60.1869 21.2749 60.1038 21.3391 60.017 21.3979L54.8102 20.1658C54.7998 20.1571 54.789 20.1495 54.7785 20.1407L54.5684 20.101C54.5854 20.0662 54.6039 20.0304 54.621 19.9956C54.6308 19.9753 54.6417 19.9553 54.6516 19.9351C54.6585 19.9217 54.6654 19.9082 54.6709 19.8957C54.6732 19.8913 54.6755 19.8868 54.6775 19.8835C54.683 19.871 54.6894 19.86 54.6946 19.8487C54.7972 19.6484 54.9014 19.4485 55.0071 19.249C55.0074 19.2478 55.0074 19.2478 55.0088 19.2469C55.8001 17.7188 56.7699 16.2899 57.8978 14.9903C57.9319 14.952 57.9663 14.9125 58.0029 14.8747C58.518 14.3032 59.079 13.7747 59.6802 13.2945C60.0103 13.0327 60.3534 12.7877 60.7082 12.5606C61.6262 11.9754 62.6305 11.5382 63.6843 11.2651C65.7851 10.721 68.0365 10.8549 69.8898 11.9294C69.9372 11.957 69.9835 11.9842 70.0306 12.0129Z" fill="#F0F0F0"/>
<path d="M70.0008 12.0763C67.2862 11.9778 64.6095 12.7371 62.3509 14.2464C61.859 14.5627 61.4199 14.9545 61.0499 15.4075C60.7038 15.8605 60.4853 16.3978 60.4171 16.9638C60.3429 17.4902 60.3279 18.0373 60.127 18.5365C60.0204 18.7905 59.8613 19.0191 59.6602 19.2073C59.459 19.3955 59.2203 19.539 58.9598 19.6285C58.3164 19.8684 57.6252 19.8628 56.9495 19.8338C56.1992 19.8017 55.4204 19.7564 54.7153 20.0629C54.6299 20.1001 54.5772 19.9654 54.6625 19.9283C55.8893 19.3949 57.2471 19.889 58.5175 19.6082C59.1102 19.4771 59.6671 19.1667 59.9398 18.6025C60.1782 18.1093 60.1941 17.5451 60.2646 17.0115C60.3231 16.4584 60.5161 15.9281 60.8267 15.4668C61.1724 14.9964 61.5957 14.5882 62.0783 14.2599C63.153 13.5032 64.3401 12.9203 65.5959 12.5324C67.0267 12.0817 68.5241 11.8791 70.0233 11.9334C70.116 11.9368 70.093 12.0797 70.0008 12.0763Z" fill="white"/>
<path d="M63.0501 13.7176C62.8483 13.3043 62.8 12.8327 62.9138 12.387C63.0276 11.9414 63.2961 11.5507 63.6714 11.2848C63.7475 11.2313 63.8343 11.347 63.7581 11.4006C63.4082 11.6476 63.1581 12.0116 63.053 12.4268C62.9478 12.842 62.9946 13.2811 63.1848 13.6648C63.226 13.7483 63.0911 13.8005 63.0501 13.7176Z" fill="white"/>
<path d="M60.4198 16.6919C61.3061 17.0055 62.2781 16.9736 63.142 16.6025C63.2275 16.5657 63.2802 16.7004 63.1948 16.7372C62.2951 17.1217 61.2835 17.1529 60.3619 16.8244C60.274 16.793 60.3324 16.6607 60.4198 16.6919Z" fill="white"/>
<path d="M67.0081 12.2724C67.0529 12.4486 67.1407 12.6109 67.2637 12.7448C67.3867 12.8786 67.541 12.9798 67.7128 13.0393C67.8009 13.0696 67.7424 13.2019 67.6548 13.1719C67.4654 13.1053 67.2951 12.9933 67.1589 12.8457C67.0227 12.6981 66.9247 12.5194 66.8735 12.3252C66.8671 12.3073 66.8678 12.2876 66.8754 12.2702C66.883 12.2528 66.897 12.2389 66.9144 12.2314C66.9323 12.2245 66.9521 12.225 66.9697 12.2326C66.9872 12.2403 67.001 12.2546 67.0081 12.2724Z" fill="white"/>
<path d="M39.2272 52.6447C40.3712 49.5687 43.0742 46.9109 46.3408 46.5947C44.3769 49.5747 43.5304 53.1533 43.951 56.6974C44.1182 58.0636 44.4464 59.5657 43.7099 60.7285C43.2516 61.452 42.444 61.8975 41.6116 62.0985C40.7791 62.2995 39.9116 62.2839 39.0553 62.2672L38.8636 62.3618C38.2614 59.1357 38.0831 55.7207 39.2272 52.6447Z" fill="#F0F0F0"/>
<path d="M46.3556 46.6618C44.1287 48.2175 42.4487 50.4353 41.5541 53.0002C41.3517 53.549 41.237 54.1262 41.2144 54.7106C41.2107 55.2806 41.3598 55.8413 41.6461 56.3342C41.9038 56.7992 42.2212 57.245 42.3613 57.7645C42.4291 58.0315 42.4397 58.3099 42.3924 58.5812C42.3451 58.8526 42.241 59.1109 42.0869 59.3393C41.7176 59.9181 41.1623 60.3298 40.6053 60.7135C39.9869 61.1396 39.3378 61.5723 38.9594 62.2416C38.9136 62.3227 38.7904 62.2468 38.8362 62.1658C39.4945 61.0014 40.8762 60.5784 41.7214 59.5893C42.1158 59.1278 42.3735 58.5446 42.2516 57.93C42.145 57.3926 41.818 56.9327 41.553 56.4641C41.2667 55.9873 41.1015 55.4476 41.0718 54.8923C41.0646 54.3086 41.1568 53.7279 41.3445 53.1751C41.7471 51.9239 42.3439 50.7438 43.1131 49.678C43.9842 48.4567 45.0578 47.3934 46.2874 46.5342C46.3636 46.481 46.4312 46.609 46.3556 46.6618Z" fill="white"/>
<path d="M41.7943 52.1574C41.3844 51.9489 41.0619 51.6015 40.8845 51.1771C40.707 50.7528 40.6862 50.2792 40.8257 49.8409C40.8543 49.7523 40.9933 49.7925 40.9647 49.8812C40.834 50.2891 40.8534 50.7302 41.0195 51.125C41.1855 51.5198 41.4872 51.8423 41.8701 52.0342C41.9533 52.076 41.877 52.199 41.7943 52.1574Z" fill="white"/>
<path d="M41.4837 56.1155C42.3803 55.8323 43.1372 55.2216 43.6035 54.4052C43.6496 54.3243 43.7728 54.4001 43.7267 54.481C43.2399 55.3297 42.4509 55.9636 41.5173 56.2562C41.4283 56.284 41.3952 56.1432 41.4837 56.1155Z" fill="white"/>
<path d="M44.084 48.6209C44.2258 48.7347 44.3936 48.8114 44.5724 48.8442C44.7512 48.8771 44.9353 48.865 45.1083 48.8091C45.1969 48.7801 45.2299 48.921 45.1419 48.9498C44.9505 49.0107 44.7471 49.0238 44.5495 48.9879C44.3518 48.9521 44.166 48.8684 44.0082 48.7441C43.9923 48.7337 43.9811 48.7176 43.9766 48.6991C43.9722 48.6806 43.975 48.6612 43.9845 48.6447C43.9946 48.6284 44.0107 48.6168 44.0293 48.6123C44.048 48.6079 44.0676 48.611 44.084 48.6209Z" fill="white"/>
<path d="M54.2122 54.4355C54.1574 54.4552 54.1026 54.4748 54.0474 54.4956C53.3119 54.7636 52.5992 55.0909 51.9166 55.4742C51.8634 55.503 51.8099 55.533 51.7576 55.5633C50.1229 56.5044 48.6772 57.7408 47.4938 59.2097C47.0235 59.7947 46.5984 60.4145 46.2221 61.064C45.7025 61.9609 45.2104 62.9748 44.4473 63.6284C44.3685 63.6975 44.2854 63.7617 44.1987 63.8205L38.9918 62.5884C38.9814 62.5797 38.9706 62.5721 38.9601 62.5633L38.75 62.5237C38.7671 62.4888 38.7855 62.453 38.8026 62.4182C38.8124 62.3979 38.8234 62.3779 38.8332 62.3577C38.8401 62.3443 38.8471 62.3309 38.8525 62.3184C38.8548 62.3139 38.8572 62.3094 38.8592 62.3061C38.8646 62.2936 38.871 62.2826 38.8762 62.2713C38.9788 62.071 39.083 61.8711 39.1887 61.6716C39.189 61.6704 39.189 61.6704 39.1905 61.6695C39.9817 60.1414 40.9515 58.7125 42.0794 57.4129C42.1136 57.3746 42.148 57.3351 42.1845 57.2973C42.6997 56.7258 43.2606 56.1973 43.8619 55.7172C44.1919 55.4553 44.535 55.2103 44.8899 54.9832C45.8078 54.398 46.8121 53.9608 47.8659 53.6877C49.9667 53.1436 52.2181 53.2775 54.0714 54.352C54.1188 54.3796 54.1651 54.4068 54.2122 54.4355Z" fill="#F0F0F0"/>
<path d="M54.1864 54.499C51.4717 54.4004 48.795 55.1597 46.5365 56.669C46.0445 56.9853 45.6054 57.3771 45.2355 57.8302C44.8894 58.2831 44.6708 58.8204 44.6026 59.3864C44.5284 59.9128 44.5135 60.4599 44.3126 60.9591C44.206 61.2131 44.0469 61.4417 43.8457 61.6299C43.6445 61.8181 43.4059 61.9617 43.1453 62.0511C42.502 62.291 41.8108 62.2854 41.135 62.2565C40.3847 62.2243 39.6059 62.179 38.9009 62.4855C38.8154 62.5227 38.7628 62.388 38.8481 62.3509C40.0748 61.8175 41.4326 62.3116 42.703 62.0308C43.2958 61.8997 43.8527 61.5893 44.1253 61.0252C44.3637 60.5319 44.3796 59.9678 44.4502 59.4341C44.5086 58.881 44.7016 58.3507 45.0123 57.8894C45.358 57.419 45.7812 57.0109 46.2638 56.6825C47.3386 55.9258 48.5256 55.3429 49.7815 54.955C51.2123 54.5043 52.7097 54.3018 54.2088 54.356C54.3016 54.3594 54.2786 54.5023 54.1864 54.499Z" fill="white"/>
<path d="M47.2337 56.1397C47.0319 55.7264 46.9836 55.2548 47.0974 54.8092C47.2112 54.3635 47.4797 53.9729 47.855 53.7069C47.9311 53.6534 48.0179 53.7691 47.9417 53.8228C47.5918 54.0698 47.3417 54.4337 47.2366 54.8489C47.1314 55.2641 47.1782 55.7032 47.3684 56.0869C47.4096 56.1704 47.2747 56.2227 47.2337 56.1397Z" fill="white"/>
<path d="M44.6053 59.1142C45.4917 59.4279 46.4637 59.396 47.3275 59.0249C47.4131 58.988 47.4658 59.1227 47.3803 59.1595C46.4806 59.5441 45.469 59.5752 44.5474 59.2468C44.4596 59.2154 44.518 59.083 44.6053 59.1142Z" fill="white"/>
<path d="M51.1917 54.695C51.2365 54.8712 51.3243 55.0335 51.4473 55.1674C51.5703 55.3012 51.7246 55.4025 51.8963 55.4619C51.9845 55.4922 51.926 55.6245 51.8384 55.5945C51.649 55.5279 51.4787 55.4159 51.3425 55.2683C51.2063 55.1207 51.1083 54.942 51.0571 54.7478C51.0507 54.7299 51.0514 54.7102 51.059 54.6928C51.0666 54.6754 51.0805 54.6615 51.098 54.654C51.1159 54.6472 51.1357 54.6476 51.1533 54.6553C51.1708 54.6629 51.1846 54.6772 51.1917 54.695Z" fill="white"/>
<path d="M104.042 75.7009C103.458 73.5182 103.916 70.9489 105.623 69.4695C105.709 71.925 106.66 74.2712 108.309 76.0929C108.947 76.7931 109.73 77.5055 109.78 78.4518C109.783 79.0481 109.557 79.6227 109.148 80.0571C108.742 80.4852 108.282 80.8594 107.781 81.1707L107.711 81.3002C106.087 79.7293 104.626 77.8835 104.042 75.7009Z" fill="#F0F0F0"/>
<path d="M105.657 69.5009C105.027 71.2618 104.968 73.1763 105.488 74.9727C105.594 75.3614 105.759 75.731 105.979 76.0681C106.205 76.3896 106.512 76.6449 106.869 76.8075C107.213 76.9401 107.539 77.1139 107.841 77.3252C107.985 77.4481 108.102 77.6001 108.183 77.7713C108.265 77.9425 108.31 78.129 108.314 78.3186C108.312 78.787 108.215 79.2501 108.03 79.6805C107.853 80.1661 107.661 80.6677 107.715 81.1942C107.722 81.258 107.623 81.2645 107.616 81.2008C107.521 80.2848 108.128 79.4967 108.209 78.6046C108.239 78.399 108.222 78.1891 108.159 77.9911C108.096 77.793 107.989 77.612 107.845 77.4619C107.571 77.2027 107.204 77.0748 106.868 76.9174C106.518 76.7639 106.21 76.5269 105.972 76.227C105.735 75.9022 105.555 75.5395 105.44 75.1544C105.168 74.2916 105.032 73.3913 105.039 72.4864C105.042 71.4537 105.22 70.4289 105.568 69.4565C105.59 69.3963 105.679 69.4411 105.657 69.5009Z" fill="white"/>
<path d="M105.288 74.4038C104.975 74.4502 104.655 74.3837 104.387 74.2162C104.118 74.0487 103.917 73.7912 103.821 73.4896C103.802 73.4285 103.896 73.3956 103.915 73.4568C104.004 73.7379 104.191 73.9777 104.442 74.1332C104.692 74.2886 104.99 74.3494 105.281 74.3045C105.345 74.2948 105.351 74.3942 105.288 74.4038Z" fill="white"/>
<path d="M106.692 76.749C107.083 76.2327 107.264 75.5882 107.201 74.9441C107.194 74.8803 107.294 74.8737 107.3 74.9375C107.365 75.6079 107.175 76.2782 106.767 76.8146C106.728 76.8657 106.654 76.7998 106.692 76.749Z" fill="white"/>
<path d="M105.162 71.5062C105.287 71.5135 105.411 71.4897 105.525 71.4369C105.638 71.384 105.737 71.3039 105.812 71.2035C105.85 71.152 105.925 71.2179 105.887 71.2691C105.803 71.3796 105.695 71.468 105.569 71.5267C105.444 71.5853 105.306 71.6124 105.168 71.6056C105.155 71.606 105.142 71.6015 105.133 71.5929C105.123 71.5842 105.117 71.5722 105.115 71.5592C105.115 71.546 105.119 71.5331 105.128 71.5232C105.136 71.5132 105.149 71.5072 105.162 71.5062Z" fill="white"/>
<path d="M113.167 70.7324C113.144 70.7653 113.121 70.7982 113.099 70.8318C112.793 71.2754 112.523 71.7432 112.293 72.2304C112.274 72.2678 112.256 72.306 112.239 72.3438C111.696 73.5237 111.378 74.794 111.299 76.0901C111.268 76.6059 111.277 77.1233 111.324 77.6379C111.39 78.3484 111.518 79.1137 111.35 79.7847C111.333 79.8549 111.312 79.9241 111.287 79.9917L107.873 81.3754C107.864 81.3747 107.855 81.3747 107.845 81.374L107.712 81.4355C107.707 81.4091 107.704 81.3817 107.699 81.3553C107.697 81.34 107.695 81.3244 107.692 81.3091C107.691 81.2988 107.689 81.2885 107.687 81.2793C107.687 81.2759 107.686 81.2725 107.686 81.2698C107.684 81.2606 107.684 81.2519 107.682 81.2435C107.66 81.0902 107.639 80.9364 107.618 80.7823C107.618 80.7815 107.618 80.7815 107.618 80.7804C107.454 79.6073 107.428 78.4187 107.544 77.2397C107.547 77.2045 107.551 77.1686 107.556 77.1328C107.618 76.6067 107.722 76.0865 107.868 75.5773C107.949 75.2988 108.044 75.0245 108.153 74.7556C108.435 74.0612 108.824 73.4155 109.307 72.8422C110.269 71.6995 111.586 70.8772 113.055 70.7417C113.093 70.7382 113.129 70.7351 113.167 70.7324Z" fill="#F0F0F0"/>
<path d="M113.177 70.7788C111.614 71.8055 110.414 73.2986 109.748 75.046C109.598 75.4196 109.508 75.8146 109.481 76.2164C109.467 76.6086 109.558 76.9973 109.746 77.3422C109.94 77.6549 110.096 77.9902 110.21 78.3405C110.251 78.5256 110.253 78.7174 110.215 78.9032C110.177 79.089 110.1 79.2647 109.99 79.4188C109.706 79.7913 109.35 80.103 108.943 80.3353C108.509 80.6163 108.054 80.9013 107.78 81.3544C107.747 81.4093 107.664 81.3547 107.697 81.2998C108.173 80.5115 109.132 80.2477 109.733 79.5837C109.882 79.4379 109.994 79.2602 110.063 79.0641C110.132 78.868 110.155 78.6587 110.131 78.4523C110.068 78.0804 109.852 77.7574 109.679 77.4297C109.491 77.0959 109.388 76.7213 109.379 76.3386C109.385 75.9367 109.46 75.539 109.6 75.1623C109.902 74.3092 110.336 73.5088 110.886 72.7905C111.51 71.9673 112.27 71.2567 113.133 70.6897C113.186 70.6546 113.23 70.7439 113.177 70.7788Z" fill="white"/>
<path d="M109.928 74.4708C109.65 74.3192 109.435 74.0737 109.322 73.7782C109.208 73.4827 109.203 73.1564 109.307 72.8576C109.329 72.7972 109.424 72.8276 109.402 72.888C109.304 73.1661 109.309 73.4701 109.415 73.7451C109.522 74.02 109.723 74.2479 109.983 74.3875C110.039 74.4179 109.984 74.501 109.928 74.4708Z" fill="white"/>
<path d="M109.639 77.1884C110.261 77.0112 110.794 76.6059 111.131 76.0532C111.165 75.9985 111.248 76.0531 111.215 76.1078C110.863 76.6823 110.307 77.1029 109.659 77.2859C109.597 77.3033 109.577 77.2057 109.639 77.1884Z" fill="white"/>
<path d="M111.575 72.082C111.67 72.1631 111.784 72.2192 111.906 72.2453C112.029 72.2714 112.156 72.2667 112.276 72.2317C112.337 72.2135 112.357 72.3111 112.296 72.3292C112.163 72.3673 112.023 72.3723 111.888 72.3437C111.752 72.3152 111.626 72.2539 111.52 72.1653C111.509 72.1578 111.502 72.1465 111.499 72.1337C111.496 72.1209 111.499 72.1075 111.506 72.0964C111.513 72.0854 111.524 72.0777 111.537 72.075C111.55 72.0723 111.563 72.0748 111.575 72.082Z" fill="white"/>
<path d="M73.1032 86.1597C72.9319 85.9733 72.8035 85.7516 72.7271 85.5102C72.6508 85.2688 72.6283 85.0136 72.6612 84.7626C72.6941 84.5116 72.7817 84.2709 72.9177 84.0573C73.0538 83.8438 73.2349 83.6627 73.4485 83.5268L72.0293 77.5386L75.0331 78.636L75.9203 84.1543C76.1249 84.5282 76.1852 84.9642 76.0897 85.3797C75.9943 85.7951 75.7498 86.1611 75.4025 86.4083C75.0553 86.6555 74.6294 86.7667 74.2056 86.7209C73.7819 86.6751 73.3896 86.4754 73.1032 86.1597Z" fill="#FFB6B6"/>
<path d="M65.8789 61.0662L67.0844 64.1661C67.0844 64.1661 66.5678 67.266 67.4288 67.9548C68.2899 68.6437 67.9455 68.6437 67.9455 69.1604C67.9752 69.5309 68.0825 69.8912 68.2605 70.2175C68.4385 70.5439 68.6833 70.8292 68.9788 71.0547C69.6676 71.5714 72.7675 82.0766 72.7675 82.0766H75.8674C75.7673 81.276 75.7673 80.4661 75.8674 79.6655C76.0396 78.46 75.3508 75.3601 75.0063 74.8435C74.6619 74.3268 75.0063 73.638 75.0063 72.6047C75.0063 71.5714 74.3175 71.0547 74.3175 69.3326C74.3175 67.6104 72.2509 54.1776 72.4231 52.6276C72.5953 51.0777 70.7009 49.7 70.7009 49.7H68.9788L65.8789 61.0662Z" fill="#E4E4E4"/>
<path d="M73.8065 126.562H71.5156L70.4258 117.725L73.8069 117.725L73.8065 126.562Z" fill="#FFB6B6"/>
<path d="M74.3891 128.783L67.002 128.783V128.689C67.002 127.927 67.305 127.195 67.8442 126.656C68.3834 126.117 69.1147 125.814 69.8773 125.814L71.2268 124.79L73.7444 125.814L74.3893 125.814L74.3891 128.783Z" fill="#2F2E41"/>
<path d="M52.8467 126.496L50.6953 125.709L52.7074 117.036L55.883 118.197L52.8467 126.496Z" fill="#FFB6B6"/>
<path d="M52.6328 128.783L45.6953 126.245L45.7274 126.157C45.9894 125.441 46.5252 124.858 47.2168 124.537C47.9084 124.216 48.6993 124.183 49.4155 124.445L51.0346 123.947L53.0472 125.773L53.6528 125.995L52.6328 128.783Z" fill="#2F2E41"/>
<path d="M57.3928 78.9543C57.3928 78.9543 55.3263 81.7098 55.3263 83.2597C55.3263 84.8097 54.6374 98.587 54.6374 98.587C54.6374 98.587 49.4085 119.103 50.4418 120.136C51.4751 121.17 55.0917 122.203 55.6083 121.686C56.125 121.17 60.6649 99.9647 60.6649 99.9647L64.9703 88.4262L68.9313 104.959L69.2757 122.525C69.2757 122.525 73.5811 123.558 74.4422 122.869C75.3033 122.181 75.4755 105.476 74.4422 99.6203C73.4089 93.7649 74.6144 80.3321 74.6144 80.3321L57.3928 78.9543Z" fill="#2F2E41"/>
<path d="M64.2973 42.186C67.1507 42.186 69.4638 39.8729 69.4638 37.0195C69.4638 34.1661 67.1507 31.853 64.2973 31.853C61.444 31.853 59.1309 34.1661 59.1309 37.0195C59.1309 39.8729 61.444 42.186 64.2973 42.186Z" fill="#FFB6B6"/>
<path d="M57.7355 49.6775C57.7355 49.6775 59.223 47.4611 62.1507 44.5334C63.7007 44.0167 66.3862 44.3179 67.3172 44.5334C71.6226 50.2165 71.8935 49.8389 73.0142 53.0142C73.3049 53.8376 73.4502 54.6287 73.321 55.2746C72.8044 57.8578 74.4404 78.782 74.6126 79.4709C74.7848 80.1598 75.9903 81.0209 74.7848 81.0209C73.5793 81.0209 55.3245 80.332 55.6689 79.8153C56.0133 79.2987 57.7355 49.6775 57.7355 49.6775Z" fill="#E4E4E4"/>
<path opacity="0.1" d="M56.9473 79.5881L62.1274 68.1907L59.5373 80.3121L56.9473 79.5881Z" fill="black"/>
<path d="M62.7355 41.806C63.2192 41.446 63.6646 41.0373 64.0646 40.5861C64.4662 40.131 64.7177 39.563 64.7846 38.9597C64.814 38.6589 64.7667 38.3555 64.6473 38.0779C64.5279 37.8003 64.3402 37.5574 64.1016 37.3718C63.6095 37.0242 62.8592 37.0444 62.4507 37.4873C62.648 36.8494 62.8282 36.097 62.4286 35.5622C62.0648 35.0754 61.3863 34.9926 60.8002 34.8321C59.6699 34.5174 58.6973 33.7929 58.0723 32.7999L59.0676 33.0059L58.9566 32.2963L59.7814 32.5831L59.7886 31.5949L60.6399 32.0712C61.6821 31.1157 63.0555 30.604 64.4688 30.6446C65.1816 30.6565 65.8799 30.8482 66.4989 31.2019C67.1192 31.5607 67.589 32.1316 67.8218 32.8093C68.2599 32.3545 69.0411 32.3897 69.5631 32.7451C70.0851 33.1006 70.3917 33.6952 70.6023 34.2906C71.0192 35.4324 71.1163 36.6665 70.8829 37.8594C70.6427 39.0552 69.9984 40.1319 69.0582 40.9087C68.1947 41.5678 67.1666 41.9767 66.0864 42.0909C65.0106 42.2024 63.9242 42.156 62.8619 41.953" fill="#2F2E41"/>
<path d="M55.3354 86.1372C55.5067 85.9508 55.6351 85.7291 55.7115 85.4878C55.7878 85.2464 55.8103 84.9912 55.7774 84.7402C55.7445 84.4892 55.6569 84.2484 55.5209 84.0349C55.3849 83.8214 55.2037 83.6403 54.9901 83.5043L56.4093 77.5161L53.4055 78.6135L52.5183 84.1318C52.3137 84.5058 52.2535 84.9418 52.3489 85.3572C52.4443 85.7726 52.6888 86.1386 53.0361 86.3858C53.3833 86.633 53.8092 86.7443 54.233 86.6984C54.6568 86.6526 55.049 86.4529 55.3354 86.1372Z" fill="#FFB6B6"/>
<path d="M59.4588 49.6775H57.7366C57.7366 49.6775 55.8423 51.0552 56.0145 52.6052C56.1867 54.1551 54.1201 67.588 54.1201 69.3101C54.1201 71.0323 53.4312 71.5489 53.4312 72.5822C53.4312 73.6155 53.7757 74.3044 53.4312 74.821C53.0868 75.3377 52.3979 78.4376 52.5702 79.6431C52.6703 80.4436 52.6703 81.2535 52.5702 82.0541H55.67C55.67 82.0541 58.7699 71.5489 59.4588 71.0323C59.7543 70.8067 59.999 70.5214 60.177 70.1951C60.3551 69.8687 60.4624 69.5085 60.4921 69.1379C60.4921 68.6213 60.1476 68.6212 61.0087 67.9324C61.8698 67.2435 61.3532 64.1436 61.3532 64.1436L62.5587 61.0437L59.4588 49.6775Z" fill="#E4E4E4"/>
</g>
<defs>
<clipPath id="clip0_951_13864">
<rect width="121.035" height="130" fill="white" transform="translate(0.482422 0.5)"/>
</clipPath>
</defs>
</svg>
